<?xml version="1.0" standalone="no"?><!DOCTYPE svg PUBLIC "-//W3C//DTD SVG 1.1//EN" "http://www.w3.org/Graphics/SVG/1.1/DTD/svg11.dtd"><svg t="1645270067706" class="icon" viewBox="0 0 1024 1024" version="1.1" xmlns="http://www.w3.org/2000/svg" p-id="2148" xmlns:xlink="http://www.w3.org/1999/xlink" width="128" height="128"><defs><style type="text/css"></style></defs><path d="M874.5462478 907.50369288a31.80393574 31.80393574 0 0 1-8.73372326-1.15351089l-167.25904034-45.64606338a395.4893565 395.4893565 0 1 1 162.15063596-162.15063595l45.64606337 167.25904034A32.95744663 32.95744663 0 0 1 874.5462478 907.50369288zM512.01433793 182.43987315a329.57446324 329.57446324 0 1 0 164.78723162 614.49158704 32.95744663 32.95744663 0 0 1 25.21244657-3.2957442l124.74393498 33.94616904-33.94616981-124.74393421a32.95744663 32.95744663 0 0 1 3.29574421-25.21244657A329.57446324 329.57446324 0 0 0 512.01433793 182.43987315z" fill="#ffffff" p-id="2149"></path><path d="M512.01433793 660.32284546a32.95744663 32.95744663 0 0 1-32.95744663-32.95744663 169.23648671 169.23648671 0 0 1 83.87670136-145.83670034 98.87233912 98.87233912 0 0 0 45.97563803-104.9694667A98.87233912 98.87233912 0 0 0 413.14199881 396.66327394a32.95744663 32.95744663 0 0 1-65.9148925 0 164.78723161 164.78723161 0 0 1 59.98255264-127.21574295A166.4351041 166.4351041 0 0 1 544.97178456 235.00699959a164.78723161 164.78723161 0 0 1 52.07276485 302.87893266A104.4751051 104.4751051 0 0 0 544.97178456 627.36539883a32.95744663 32.95744663 0 0 1-32.95744663 32.95744663zM512.01433793 783.91326879a42.02074376 42.02074376 0 0 1-29.16734007-12.02946746 60.64170115 60.64170115 0 0 1-5.10840439-6.26191529 40.0432974 40.0432974 0 0 1-6.09712759-14.83085083 44.82212714 44.82212714 0 0 1-0.82393547-8.07457394 41.19680829 41.19680829 0 0 1 64.10223307-34.27574447 60.64170115 60.64170115 0 0 1 6.26191451 5.1084044A42.02074376 42.02074376 0 0 1 553.21114621 742.71646127a44.82212714 44.82212714 0 0 1-0.82393624 8.07457394 40.0432974 40.0432974 0 0 1-6.09712757 14.83085083 40.0432974 40.0432974 0 0 1-11.37031892 11.37031892 40.0432974 40.0432974 0 0 1-14.83085083 6.09712758 44.82212714 44.82212714 0 0 1-8.07457472 0.82393625z" fill="#ffffff" p-id="2150"></path></svg>