<?xml version="1.0" standalone="no"?><!DOCTYPE svg PUBLIC "-//W3C//DTD SVG 1.1//EN" "http://www.w3.org/Graphics/SVG/1.1/DTD/svg11.dtd"><svg class="icon" width="128px" height="128.00px" viewBox="0 0 1024 1024" version="1.1" xmlns="http://www.w3.org/2000/svg"><path d="M509.184 513.1264m-450.816 0a450.816 450.816 0 1 0 901.632 0 450.816 450.816 0 1 0-901.632 0Z" fill="#FF4D7C" /><path d="M778.8544 311.808h-67.3792v-40.9088a36.2496 36.2496 0 0 0-36.2496-36.2496H280.2176a36.2496 36.2496 0 0 0-36.2496 36.2496v153.3952a36.2496 36.2496 0 0 0 36.2496 36.2496h395.008a36.2496 36.2496 0 0 0 36.2496-36.2496V369.2544h38.656v133.2736h-285.696c-15.872 0-28.7232 12.8512-28.7232 28.7232v111.7696h-22.1696c-12.032 0-21.76 9.728-21.76 21.76v153.1392c0 12.032 9.728 21.76 21.76 21.76h101.632c12.032 0 21.76-9.728 21.76-21.76v-153.1392c0-12.032-9.728-21.76-21.76-21.76h-22.0672v-83.0976h285.696c15.872 0 28.7232-12.8512 28.7232-28.7232V340.5312c0.0512-15.872-12.8-28.7232-28.672-28.7232z m-158.208 112.64H334.7968c-13.568 0-24.6272-11.008-24.6272-24.6272s11.008-24.6272 24.6272-24.6272h285.8496c13.568 0 24.6272 11.008 24.6272 24.6272s-11.008 24.6272-24.6272 24.6272z" fill="#FF3369" /><path d="M778.8544 311.808h-67.3792v-40.9088a36.2496 36.2496 0 0 0-36.2496-36.2496H280.2176a36.2496 36.2496 0 0 0-36.2496 36.2496v153.3952a36.2496 36.2496 0 0 0 36.2496 36.2496h395.008a36.2496 36.2496 0 0 0 36.2496-36.2496V369.2544h38.656v133.2736h-285.696c-15.872 0-28.7232 12.8512-28.7232 28.7232v111.7696h-22.1696c-12.032 0-21.76 9.728-21.76 21.76v153.1392c0 12.032 9.728 21.76 21.76 21.76h101.632c12.032 0 21.76-9.728 21.76-21.76v-153.1392c0-12.032-9.728-21.76-21.76-21.76h-22.0672v-83.0976h285.696c15.872 0 28.7232-12.8512 28.7232-28.7232V340.5312c0.0512-15.872-12.8-28.7232-28.672-28.7232z m-158.208 112.64H334.7968c-13.568 0-24.6272-11.008-24.6272-24.6272s11.008-24.6272 24.6272-24.6272h285.8496c13.568 0 24.6272 11.008 24.6272 24.6272s-11.008 24.6272-24.6272 24.6272z" fill="#FFFFFF" /></svg>