<?xml version="1.0" standalone="no"?><!DOCTYPE svg PUBLIC "-//W3C//DTD SVG 1.1//EN" "http://www.w3.org/Graphics/SVG/1.1/DTD/svg11.dtd"><svg class="icon" width="128px" height="128.00px" viewBox="0 0 1024 1024" version="1.1" xmlns="http://www.w3.org/2000/svg"><path d="M661.942857 73.142857H146.285714c-20.114286 0-36.571429 16.457143-36.571428 36.571429v804.571428c0 20.114286 16.457143 36.571429 36.571428 36.571429h731.428572c20.114286 0 36.571429-16.457143 36.571428-36.571429V325.485714L661.942857 73.142857z" fill="#278EFF" /><path d="M661.942857 288.914286c0 20.114286 16.457143 36.571429 36.571429 36.571428H914.285714L661.942857 73.142857v215.771429z" fill="#5CB2FF" /><path d="M365.714286 634.514286h43.885714v64c-5.485714 7.314286-16.457143 10.971429-27.428571 10.971428-43.885714 0-69.485714-42.057143-69.485715-117.028571 0-71.314286 25.6-115.2 65.828572-115.2 21.942857 0 34.742857 14.628571 45.714285 27.428571l3.657143 3.657143L457.142857 457.142857l-1.828571-1.828571c-20.114286-31.085714-47.542857-45.714286-78.628572-45.714286-71.314286 0-120.685714 76.8-120.685714 184.685714 0 111.542857 47.542857 182.857143 120.685714 182.857143 32.914286 0 62.171429-16.457143 82.285715-43.885714v-162.742857H365.714286v64zM506.514286 415.085714h56.685714v354.742857h-56.685714zM773.485714 480.914286v-65.828572h-159.085714v354.742857h56.685714v-140.8h87.771429v-65.828571h-87.771429v-82.285714z" fill="#FFFFFF" /></svg>