<?xml version="1.0" standalone="no"?><!DOCTYPE svg PUBLIC "-//W3C//DTD SVG 1.1//EN" "http://www.w3.org/Graphics/SVG/1.1/DTD/svg11.dtd"><svg class="icon" width="128px" height="128.00px" viewBox="0 0 1024 1024" version="1.1" xmlns="http://www.w3.org/2000/svg"><path d="M661.942857 73.142857H146.285714c-20.114286 0-36.571429 16.457143-36.571428 36.571429v804.571428c0 20.114286 16.457143 36.571429 36.571428 36.571429h731.428572c20.114286 0 36.571429-16.457143 36.571428-36.571429V325.485714L661.942857 73.142857z" fill="#BCBCBC" /><path d="M661.942857 288.914286c0 20.114286 16.457143 36.571429 36.571429 36.571428H914.285714L661.942857 73.142857v215.771429z" fill="#D8D8D8" /><path d="M502.857143 495.542857l31.085714-31.085714c16.457143-16.457143 36.571429-23.771429 58.514286-23.771429 21.942857 0 42.057143 7.314286 58.514286 23.771429 32.914286 32.914286 32.914286 85.942857 0 117.028571L621.714286 614.4l38.4 38.4 31.085714-31.085714c53.028571-53.028571 53.028571-140.8 0-195.657143-53.028571-53.028571-140.8-53.028571-195.657143 0L464.457143 457.142857l38.4 38.4zM521.142857 713.142857l-31.085714 31.085714c-32.914286 32.914286-85.942857 32.914286-117.028572 0-32.914286-32.914286-32.914286-85.942857 0-117.028571l31.085715-31.085714-38.4-38.4-31.085715 31.085714c-53.028571 53.028571-53.028571 140.8 0 195.657143 27.428571 27.428571 62.171429 40.228571 96.914286 40.228571s71.314286-12.8 96.914286-40.228571l31.085714-31.085714-38.4-40.228572z" fill="#FFFFFF" /><path d="M425.380571 651.812571l146.102858-146.102857 38.784 38.784-146.102858 146.102857z" fill="#FFFFFF" /></svg>