<?xml version="1.0" standalone="no"?>
<!DOCTYPE svg PUBLIC "-//W3C//DTD SVG 1.1//EN" "http://www.w3.org/Graphics/SVG/1.1/DTD/svg11.dtd">
<svg class="icon" width="128px" height="128.00px" viewBox="0 0 1024 1024" version="1.1" xmlns="http://www.w3.org/2000/svg">
    <path d="M661.942857 73.142857H146.285714c-20.114286 0-36.571429 16.457143-36.571428 36.571429v804.571428c0 20.114286 16.457143 36.571429 36.571428 36.571429h731.428572c20.114286 0 36.571429-16.457143 36.571428-36.571429V325.485714L661.942857 73.142857z" fill="#F2733D" />
    <path d="M661.942857 288.914286c0 20.114286 16.457143 36.571429 36.571429 36.571428H914.285714L661.942857 73.142857v215.771429z" fill="#EF8F6F" />
    <path d="M512 420.571429h-140.8v354.742857h91.428571v-124.342857h53.028572c104.228571 0 166.4-43.885714 166.4-118.857143-1.828571-73.142857-58.514286-111.542857-170.057143-111.542857z m-49.371429 62.171428h43.885715c60.342857 0 84.114286 14.628571 84.114285 51.2 0 38.4-27.428571 56.685714-82.285714 56.685714h-47.542857v-107.885714z" fill="#FFFFFF" />
</svg>