<?xml version="1.0" standalone="no"?><!DOCTYPE svg PUBLIC "-//W3C//DTD SVG 1.1//EN" "http://www.w3.org/Graphics/SVG/1.1/DTD/svg11.dtd"><svg class="icon" width="128px" height="128.00px" viewBox="0 0 1024 1024" version="1.1" xmlns="http://www.w3.org/2000/svg"><path d="M661.942857 73.142857H146.285714c-20.114286 0-36.571429 16.457143-36.571428 36.571429v804.571428c0 20.114286 16.457143 36.571429 36.571428 36.571429h731.428572c20.114286 0 36.571429-16.457143 36.571428-36.571429V325.485714L661.942857 73.142857z" fill="#26C9FF" /><path d="M661.942857 288.914286c0 20.114286 16.457143 36.571429 36.571429 36.571428H914.285714L661.942857 73.142857v215.771429z" fill="#5ADCFF" /><path d="M292.571429 415.085714h-84.114286v354.742857h56.685714v-124.342857h29.257143c62.171429 0 98.742857-43.885714 98.742857-118.857143 0-73.142857-34.742857-111.542857-100.571428-111.542857z m-27.428572 62.171429h23.771429c34.742857 0 47.542857 14.628571 47.542857 51.2 0 38.4-14.628571 56.685714-45.714286 56.685714h-25.6v-107.885714zM544.914286 570.514286l-32.914286-18.285715-1.828571-1.828571c-20.114286-10.971429-34.742857-20.114286-34.742858-42.057143 0-20.114286 10.971429-32.914286 31.085715-32.914286 18.285714 0 32.914286 9.142857 49.371428 27.428572l3.657143 3.657143 29.257143-49.371429-1.828571-1.828571c-20.114286-29.257143-49.371429-45.714286-80.457143-45.714286-51.2 0-87.771429 43.885714-87.771429 104.228571 0 54.857143 27.428571 82.285714 51.2 96.914286l34.742857 21.942857c20.114286 12.8 32.914286 20.114286 32.914286 42.057143 0 23.771429-12.8 36.571429-34.742857 36.571429-20.114286 0-42.057143-14.628571-58.514286-36.571429l-3.657143-3.657143-32.914285 54.857143 1.828571 1.828572c23.771429 32.914286 58.514286 53.028571 91.428571 53.028571 54.857143 0 93.257143-43.885714 93.257143-107.885714 1.828571-51.2-14.628571-82.285714-49.371428-102.4zM702.171429 415.085714h-71.314286v354.742857h73.142857c76.8 0 122.514286-65.828571 122.514286-179.2 0-111.542857-43.885714-175.542857-124.342857-175.542857z m-14.628572 64h10.971429c47.542857 0 71.314286 36.571429 71.314285 113.371429s-23.771429 115.2-71.314285 115.2h-10.971429V479.085714z" fill="#FFFFFF" /></svg>