<?xml version="1.0" standalone="no"?><!DOCTYPE svg PUBLIC "-//W3C//DTD SVG 1.1//EN" "http://www.w3.org/Graphics/SVG/1.1/DTD/svg11.dtd"><svg class="icon" width="128px" height="128.00px" viewBox="0 0 1024 1024" version="1.1" xmlns="http://www.w3.org/2000/svg"><path d="M914.285714 73.142857H109.714286c-20.114286 0-36.571429 16.457143-36.571429 36.571429v804.571428c0 20.114286 16.457143 36.571429 36.571429 36.571429h804.571428c20.114286 0 36.571429-16.457143 36.571429-36.571429V109.714286c0-20.114286-16.457143-36.571429-36.571429-36.571429z" fill="#8095FF" /><path d="M832 426.057143c-9.142857-7.314286-20.114286-9.142857-31.085714-7.314286L694.857143 438.857143h-1.828572v-54.857143c0-20.114286-16.457143-36.571429-36.571428-36.571429H252.342857c-20.114286 0-36.571429 16.457143-36.571428 36.571429v292.571429c0 20.114286 16.457143 36.571429 36.571428 36.571428h404.114286c20.114286 0 36.571429-16.457143 36.571428-36.571428v-54.857143h1.828572l107.885714 20.114285h7.314286c9.142857 0 16.457143-3.657143 23.771428-9.142857 9.142857-7.314286 12.8-16.457143 12.8-27.428571v-153.6c-1.828571-9.142857-5.485714-18.285714-14.628571-25.6z" fill="#FFFFFF" /><path d="M479.085714 435.2h128v36.571429h-128z" fill="#8095FF" /></svg>