<?xml version="1.0" standalone="no"?>
<!DOCTYPE svg PUBLIC "-//W3C//DTD SVG 1.1//EN" "http://www.w3.org/Graphics/SVG/1.1/DTD/svg11.dtd">
<svg class="icon" width="128px" height="128.00px" viewBox="0 0 1024 1024" version="1.1" xmlns="http://www.w3.org/2000/svg">
    <path d="M661.942857 73.142857H146.285714c-20.114286 0-36.571429 16.457143-36.571428 36.571429v804.571428c0 20.114286 16.457143 36.571429 36.571428 36.571429h731.428572c20.114286 0 36.571429-16.457143 36.571428-36.571429V325.485714L661.942857 73.142857z" fill="#8095FF" />
    <path d="M661.942857 288.914286c0 20.114286 16.457143 36.571429 36.571429 36.571428H914.285714L661.942857 73.142857v215.771429z" fill="#B6C6FF" />
    <path d="M632.685714 437.028571H301.714286c-20.114286 0-36.571429 18.285714-36.571429 42.057143v279.771429c0 23.771429 16.457143 42.057143 36.571429 42.057143h332.8c20.114286 0 36.571429-18.285714 36.571428-42.057143V479.085714c-1.828571-21.942857-18.285714-42.057143-38.4-42.057143z" fill="#FFFFFF" />
    <path d="M782.628571 513.828571c-9.142857-7.314286-20.114286-10.971429-31.085714-9.142857l-89.6 20.114286c-16.457143 3.657143-29.257143 21.942857-29.257143 42.057143v106.057143c0 20.114286 12.8 38.4 29.257143 42.057143l89.6 20.114285h7.314286c9.142857 0 16.457143-3.657143 23.771428-9.142857 9.142857-7.314286 12.8-20.114286 12.8-32.914286v-146.285714c0-12.8-3.657143-23.771429-12.8-32.914286z" fill="#FFFFFF" opacity=".8" />
    <path d="M488.228571 524.8h104.228572V566.857143h-104.228572z" fill="#8095FF" />
</svg>