<?xml version="1.0" standalone="no"?><!DOCTYPE svg PUBLIC "-//W3C//DTD SVG 1.1//EN" "http://www.w3.org/Graphics/SVG/1.1/DTD/svg11.dtd"><svg class="icon" width="128px" height="128.00px" viewBox="0 0 1024 1024" version="1.1" xmlns="http://www.w3.org/2000/svg"><path d="M661.942857 73.142857H146.285714c-20.114286 0-36.571429 16.457143-36.571428 36.571429v804.571428c0 20.114286 16.457143 36.571429 36.571428 36.571429h731.428572c20.114286 0 36.571429-16.457143 36.571428-36.571429V325.485714L661.942857 73.142857z" fill="#13687C" /><path d="M661.942857 288.914286c0 20.114286 16.457143 36.571429 36.571429 36.571428H914.285714L661.942857 73.142857v215.771429z" fill="#368891" /><path d="M336.457143 570.514286l-32.914286-20.114286-1.828571-1.828571c-20.114286-10.971429-34.742857-20.114286-34.742857-40.228572s10.971429-32.914286 31.085714-32.914286c18.285714 0 32.914286 9.142857 49.371428 27.428572l3.657143 3.657143 29.257143-49.371429-1.828571-1.828571c-20.114286-29.257143-49.371429-45.714286-80.457143-45.714286-51.2 0-87.771429 43.885714-87.771429 104.228571 0 54.857143 27.428571 82.285714 51.2 96.914286l34.742857 21.942857c20.114286 12.8 32.914286 20.114286 32.914286 42.057143 0 23.771429-12.8 36.571429-34.742857 36.571429-20.114286 0-42.057143-14.628571-58.514286-36.571429l-3.657143-3.657143-32.914285 54.857143 1.828571 1.828572c23.771429 32.914286 58.514286 53.028571 91.428572 53.028571 54.857143 0 93.257143-43.885714 93.257142-107.885714 1.828571-51.2-14.628571-82.285714-49.371428-102.4zM517.485714 586.971429c-3.657143 20.114286-7.314286 38.4-10.971428 58.514285-1.828571 12.8-5.485714 25.6-7.314286 40.228572-3.657143-14.628571-5.485714-31.085714-7.314286-45.714286-3.657143-16.457143-5.485714-34.742857-9.142857-53.028571l-32.914286-171.885715h-58.514285l76.8 354.742857H530.285714l76.8-354.742857h-56.685714l-32.914286 171.885715zM720.457143 570.514286v64h43.885714v64c-5.485714 7.314286-16.457143 10.971429-27.428571 10.971428-43.885714 0-69.485714-42.057143-69.485715-117.028571 0-71.314286 25.6-115.2 65.828572-115.2 21.942857 0 34.742857 14.628571 45.714286 27.428571l3.657142 3.657143 29.257143-51.2-1.828571-1.828571c-20.114286-31.085714-47.542857-45.714286-78.628572-45.714286-71.314286 0-120.685714 76.8-120.685714 184.685714 0 111.542857 47.542857 182.857143 120.685714 182.857143 32.914286 0 62.171429-16.457143 82.285715-43.885714v-162.742857h-93.257143z" fill="#FFFFFF" /></svg>