<?xml version="1.0" standalone="no"?><!DOCTYPE svg PUBLIC "-//W3C//DTD SVG 1.1//EN" "http://www.w3.org/Graphics/SVG/1.1/DTD/svg11.dtd"><svg class="icon" width="128px" height="128.00px" viewBox="0 0 1024 1024" version="1.1" xmlns="http://www.w3.org/2000/svg"><path d="M914.285714 73.142857H109.714286c-20.114286 0-36.571429 16.457143-36.571429 36.571429v804.571428c0 20.114286 16.457143 36.571429 36.571429 36.571429h804.571428c20.114286 0 36.571429-16.457143 36.571429-36.571429V109.714286c0-20.114286-16.457143-36.571429-36.571429-36.571429z" fill="#8450EA" /><path d="M738.742857 627.2c0-1.828571-1.828571-1.828571-1.828571-1.828571V298.057143c0-3.657143-1.828571-9.142857-3.657143-10.971429v-5.485714c-5.485714-20.114286-25.6-31.085714-45.714286-25.6l-309.028571 85.942857c-12.8 3.657143-21.942857 14.628571-25.6 25.6-3.657143 3.657143-5.485714 7.314286-5.485715 12.8V676.571429c-16.457143-3.657143-38.4-3.657143-56.685714 5.485714-38.4 18.285714-56.685714 56.685714-43.885714 87.771428 14.628571 31.085714 56.685714 42.057143 95.085714 23.771429 38.4-18.285714 56.685714-56.685714 43.885714-87.771429 0-1.828571-1.828571-1.828571-1.828571-3.657142v-162.742858L702.171429 457.142857v138.971429c-16.457143-5.485714-38.4-3.657143-56.685715 5.485714-38.4 18.285714-56.685714 56.685714-43.885714 87.771429 14.628571 31.085714 56.685714 42.057143 95.085714 23.771428 38.4-16.457143 56.685714-54.857143 42.057143-85.942857zM384 504.685714v-91.428571h3.657143c3.657143 0 7.314286 0 9.142857-1.828572L702.171429 329.142857v89.6L384 504.685714z" fill="#FFFFFF" /></svg>