<?xml version="1.0" standalone="no"?><!DOCTYPE svg PUBLIC "-//W3C//DTD SVG 1.1//EN" "http://www.w3.org/Graphics/SVG/1.1/DTD/svg11.dtd"><svg class="icon" width="128px" height="128.00px" viewBox="0 0 1024 1024" version="1.1" xmlns="http://www.w3.org/2000/svg"><path d="M661.942857 73.142857H146.285714c-20.114286 0-36.571429 16.457143-36.571428 36.571429v804.571428c0 20.114286 16.457143 36.571429 36.571428 36.571429h731.428572c20.114286 0 36.571429-16.457143 36.571428-36.571429V325.485714L661.942857 73.142857z" fill="#F87E0C" /><path d="M661.942857 288.914286c0 20.114286 16.457143 36.571429 36.571429 36.571428H914.285714L661.942857 73.142857v215.771429z" fill="#F79341" /><path d="M475.428571 415.085714h-95.085714L256 769.828571h85.942857l27.428572-89.6h118.857142l27.428572 89.6H603.428571l-128-351.085714v-3.657143z m-49.371428 67.657143c3.657143 12.8 7.314286 23.771429 10.971428 36.571429 7.314286 23.771429 12.8 45.714286 20.114286 67.657143l9.142857 32.914285h-80.457143l9.142858-32.914285c10.971429-34.742857 21.942857-71.314286 31.085714-104.228572zM636.342857 415.085714h84.114286v354.742857h-84.114286z" fill="#FFFFFF" /></svg>