<?xml version="1.0" standalone="no"?>
<!DOCTYPE svg PUBLIC "-//W3C//DTD SVG 1.1//EN" "http://www.w3.org/Graphics/SVG/1.1/DTD/svg11.dtd">
<svg class="icon" width="128px" height="128.00px" viewBox="0 0 1024 1024" version="1.1" xmlns="http://www.w3.org/2000/svg">
    <path d="M426.410667 772.096c0.170667-114.602667 0.597333-304.981333 0.597333-304.981333 0-12.544 3.754667-24.917333 10.837333-35.925334l109.312-169.045333c1.28-1.962667 0.938667-5.034667 3.328-5.034667 22.357333 0 13.482667 54.784-3.072 106.410667-13.056 29.354667-12.373333 62.634667 4.181334 90.709333 18.517333 31.488 38.314667 51.114667 75.605333 51.114667h125.013333c17.408 0 30.464 15.957333 27.050667 33.024l-37.376 185.514667c-7.338667 32-24.405333 48.042667-32 48.042666H426.410667v0.170667z" fill="#64EDAC" />
    <path d="M880.128 430.506667c-16.384-19.968-41.045333-31.402667-67.754667-31.402667H631.893333c22.784-70.058667 41.472-163.498667 3.328-216.32-12.288-16.981333-35.925333-37.205333-78.762666-37.205333-55.808 0-80.128 30.464-98.645334 58.965333L348.501333 373.418667c-5.290667 8.192-9.813333 16.810667-13.653333 25.6H232.362667c-35.669333 0-64.853333 28.330667-66.218667 63.658666l-39.936 300.970667-0.256 4.522667c0 60.842667 49.493333 110.336 110.336 110.336h473.6c63.744 0 118.357333-52.992 136.192-132.608l50.432-250.368c4.693333-22.954667-1.365333-46.677333-16.384-65.024z m-643.84 379.733333c-22.613333 0-41.045333-17.834667-42.069333-40.192l40.106666-302.592 85.589334-0.256v342.954667l-83.626667 0.085333z m593.322667-328.192l-50.346667 249.685333c-10.325333 46.250667-38.826667 78.506667-69.376 78.506667H388.266667c0.085333-103.424 0.597333-343.210667 0.597333-343.296 0-19.797333 5.888-39.338667 16.981333-56.490667l109.312-168.96c15.104-23.381333 21.674667-27.733333 41.301334-27.733333 16.896 0 21.504 6.314667 23.466666 8.96 15.530667 21.504 10.410667 83.541333-12.8 154.88a60.928 60.928 0 0 0 2.474667 57.429333c11.690667 19.882667 33.792 32.256 57.685333 32.256H812.373333c6.058667 0 11.690667 2.389333 14.933334 6.4 2.133333 2.645333 2.901333 5.461333 2.304 8.362667z" fill="#333C4F" />
</svg>