<?xml version="1.0" standalone="no"?>
<!DOCTYPE svg PUBLIC "-//W3C//DTD SVG 1.1//EN" "http://www.w3.org/Graphics/SVG/1.1/DTD/svg11.dtd">
<svg class="icon" width="128px" height="128.00px" viewBox="0 0 1024 1024" version="1.1" xmlns="http://www.w3.org/2000/svg">
    <path d="M661.942857 73.142857H146.285714c-20.114286 0-36.571429 16.457143-36.571428 36.571429v804.571428c0 20.114286 16.457143 36.571429 36.571428 36.571429h731.428572c20.114286 0 36.571429-16.457143 36.571428-36.571429V325.485714L661.942857 73.142857z" fill="#1DB87B" />
    <path d="M661.942857 288.914286c0 20.114286 16.457143 36.571429 36.571429 36.571428H914.285714L661.942857 73.142857v215.771429z" fill="#63CE9E" />
    <path d="M568.685714 596.114286l113.371429-175.542857H585.142857l-40.228571 73.142857c-9.142857 14.628571-16.457143 31.085714-25.6 51.2-5.485714-9.142857-9.142857-18.285714-14.628572-25.6-5.485714-9.142857-10.971429-18.285714-14.628571-25.6l-43.885714-73.142857h-102.4l113.371428 171.885714-120.685714 182.857143h98.742857l45.714286-78.628572c9.142857-14.628571 16.457143-31.085714 29.257143-53.028571 5.485714 9.142857 9.142857 16.457143 14.628571 23.771428 5.485714 9.142857 10.971429 20.114286 16.457143 29.257143l47.542857 78.628572h102.4l-122.514286-179.2z" fill="#FFFFFF" />
</svg>