<?xml version="1.0" standalone="no"?><!DOCTYPE svg PUBLIC "-//W3C//DTD SVG 1.1//EN" "http://www.w3.org/Graphics/SVG/1.1/DTD/svg11.dtd"><svg class="icon" width="128px" height="128.00px" viewBox="0 0 1024 1024" version="1.1" xmlns="http://www.w3.org/2000/svg"><path d="M661.942857 73.142857H146.285714c-20.114286 0-36.571429 16.457143-36.571428 36.571429v804.571428c0 20.114286 16.457143 36.571429 36.571428 36.571429h731.428572c20.114286 0 36.571429-16.457143 36.571428-36.571429V325.485714L661.942857 73.142857z" fill="#BCBCBC" /><path d="M661.942857 288.914286c0 20.114286 16.457143 36.571429 36.571429 36.571428H914.285714L661.942857 73.142857v215.771429z" fill="#D8D8D8" /><path d="M332.8 605.257143l-31.085714-10.971429 104.228571-32.914285v-71.314286l-201.142857 78.628571V621.714286l201.142857 78.628571v-71.314286zM438.857143 799.085714h58.514286l80.457142-362.057143h-58.514285zM819.2 566.857143l-201.142857-76.8v71.314286l73.142857 21.942857 31.085714 10.971428-104.228571 34.742857v71.314286l201.142857-78.628571z" fill="#FFFFFF" /></svg>