<?xml version="1.0" standalone="no"?>
<!DOCTYPE svg PUBLIC "-//W3C//DTD SVG 1.1//EN" "http://www.w3.org/Graphics/SVG/1.1/DTD/svg11.dtd">
<svg class="icon" width="128px" height="128.00px" viewBox="0 0 1024 1024" version="1.1" xmlns="http://www.w3.org/2000/svg">
    <path d="M661.942857 73.142857H146.285714c-20.114286 0-36.571429 16.457143-36.571428 36.571429v804.571428c0 20.114286 16.457143 36.571429 36.571428 36.571429h731.428572c20.114286 0 36.571429-16.457143 36.571428-36.571429V325.485714L661.942857 73.142857z" fill="#BCBCBC" />
    <path d="M661.942857 288.914286c0 20.114286 16.457143 36.571429 36.571429 36.571428H914.285714L661.942857 73.142857v215.771429z" fill="#D8D8D8" />
    <path d="M504.685714 693.028571c-12.8 0-25.6 5.485714-32.914285 14.628572-9.142857 9.142857-14.628571 21.942857-14.628572 36.571428 0 27.428571 20.114286 49.371429 47.542857 49.371429 25.6 0 47.542857-21.942857 47.542857-49.371429 0-14.628571-5.485714-25.6-14.628571-34.742857-9.142857-10.971429-20.114286-16.457143-32.914286-16.457143zM510.171429 351.085714c-40.228571 0-76.8 18.285714-106.057143 51.2l-10.971429 12.8 47.542857 43.885715 10.971429-12.8c14.628571-18.285714 34.742857-27.428571 54.857143-27.428572 12.8 0 23.771429 3.657143 29.257143 10.971429 5.485714 7.314286 9.142857 16.457143 9.142857 29.257143 0 21.942857-14.628571 40.228571-31.085715 60.342857-23.771429 29.257143-53.028571 67.657143-45.714285 124.342857l1.828571 14.628571h69.485714l-1.828571-18.285714c-3.657143-34.742857 14.628571-58.514286 36.571429-85.942857 20.114286-25.6 43.885714-54.857143 43.885714-96.914286 0-64-43.885714-106.057143-107.885714-106.057143z" fill="#FFFFFF" />
</svg>