<?xml version="1.0" standalone="no"?>
<!DOCTYPE svg PUBLIC "-//W3C//DTD SVG 1.1//EN" "http://www.w3.org/Graphics/SVG/1.1/DTD/svg11.dtd">
<svg class="icon" width="128px" height="104.52px" viewBox="0 0 1254 1024" version="1.1" xmlns="http://www.w3.org/2000/svg">
    <path d="M1128.228571 248.685714c-5.485714-5.485714-16.457143-10.971429-25.6-10.971428H671.085714l-71.314285-64c-7.314286-5.485714-14.628571-9.142857-23.771429-9.142857H224.914286c-10.971429 0-20.114286 3.657143-27.428572 10.971428l-67.657143 73.142857c-5.485714 7.314286-9.142857 16.457143-9.142857 25.6v586.971429c0 20.114286 16.457143 36.571429 36.571429 36.571428H1102.628571c20.114286 0 36.571429-16.457143 36.571429-36.571428V274.285714c0-9.142857-3.657143-18.285714-10.971429-25.6z" fill="#F9D482" />
    <path d="M120.685714 367.542857v495.542857c0 20.114286 16.457143 36.571429 36.571429 36.571429H1102.628571c20.114286 0 36.571429-16.457143 36.571429-36.571429V365.714286l-1018.514286 1.828571z" fill="#FFC543" />
</svg>