<?xml version="1.0" standalone="no"?>
<!DOCTYPE svg PUBLIC "-//W3C//DTD SVG 1.1//EN" "http://www.w3.org/Graphics/SVG/1.1/DTD/svg11.dtd">
<svg class="icon" width="128px" height="128.00px" viewBox="0 0 1024 1024" version="1.1" xmlns="http://www.w3.org/2000/svg">
    <path d="M661.942857 73.142857H146.285714c-20.114286 0-36.571429 16.457143-36.571428 36.571429v804.571428c0 20.114286 16.457143 36.571429 36.571428 36.571429h731.428572c20.114286 0 36.571429-16.457143 36.571428-36.571429V325.485714L661.942857 73.142857z" fill="#2581F3" />
    <path d="M661.942857 288.914286c0 20.114286 16.457143 36.571429 36.571429 36.571428H914.285714L661.942857 73.142857v215.771429z" fill="#57A1F2" />
    <path d="M647.314286 420.571429l-27.428572 171.885714c-3.657143 31.085714-9.142857 64-12.8 96.914286-1.828571-9.142857-3.657143-18.285714-5.485714-25.6-5.485714-23.771429-9.142857-47.542857-14.628571-69.485715L546.742857 420.571429h-64l-40.228571 171.885714c-7.314286 32.914286-12.8 64-18.285715 95.085714l-5.485714-43.885714c-1.828571-16.457143-5.485714-34.742857-7.314286-51.2L380.342857 420.571429h-78.628571l67.657143 354.742857h91.428571l38.4-175.542857c3.657143-21.942857 9.142857-43.885714 12.8-65.828572 3.657143 20.114286 7.314286 40.228571 12.8 65.828572l40.228571 173.714285h91.428572l64-351.085714v-3.657143h-73.142857z" fill="#FFFFFF" />
</svg>