<?xml version="1.0" standalone="no"?>
<!DOCTYPE svg PUBLIC "-//W3C//DTD SVG 1.1//EN" "http://www.w3.org/Graphics/SVG/1.1/DTD/svg11.dtd">
<svg class="icon" width="128px" height="128.00px" viewBox="0 0 1024 1024" version="1.1" xmlns="http://www.w3.org/2000/svg">
    <path d="M720.042667 900.437333H512c-106.581333 0-205.909333-42.325333-279.808-119.04-73.898667-76.8-112.384-177.834667-108.288-284.501333 7.68-201.557333 171.52-365.397333 372.992-372.992 106.752-4.181333 207.701333 34.389333 284.416 108.288 76.8 73.898667 119.04 173.312 119.04 279.808 0 103.936-40.533333 201.642667-114.261333 275.029333v47.274667c0.085333 36.437333-29.610667 66.133333-66.048 66.133333zM512.085333 191.914667c-4.181333 0-8.362667 0.085333-12.629333 0.256-166.058667 6.314667-301.056 141.312-307.370667 307.370666-3.328 87.978667 28.330667 171.264 89.258667 234.496 60.928 63.317333 142.848 98.133333 230.656 98.133334h205.909333v-45.994667c0-17.664 7.082667-34.474667 19.882667-47.274667 60.842667-60.586667 94.378667-141.141333 94.378667-226.901333 0-87.808-34.816-169.728-98.133334-230.656-60.245333-57.941333-138.666667-89.429333-221.952-89.429333z" fill="#333C4F" />
    <path d="M512 787.029333c-75.434667 0-145.834667-29.952-198.144-84.309333-52.309333-54.357333-79.530667-125.952-76.629333-201.557333 5.461333-142.677333 121.429333-258.645333 264.021333-264.021334 3.584-0.170667 7.253333-0.170667 10.837333-0.170666 151.637333 0 275.029333 123.392 275.029334 275.029333 0 73.642667-28.757333 142.933333-81.066667 194.901333-21.418667 21.333333-33.194667 49.408-33.194667 79.189334v0.938666H512z" fill="#64EDAC" />
    <path d="M344.746667 491.434667m-44.032 0a44.032 44.032 0 1 0 88.064 0 44.032 44.032 0 1 0-88.064 0Z" fill="#333C4F" />
    <path d="M512 491.434667m-44.032 0a44.032 44.032 0 1 0 88.064 0 44.032 44.032 0 1 0-88.064 0Z" fill="#333C4F" />
    <path d="M679.253333 491.434667m-44.032 0a44.032 44.032 0 1 0 88.064 0 44.032 44.032 0 1 0-88.064 0Z" fill="#333C4F" />
</svg>