<?xml version="1.0" standalone="no"?><!DOCTYPE svg PUBLIC "-//W3C//DTD SVG 1.1//EN" "http://www.w3.org/Graphics/SVG/1.1/DTD/svg11.dtd"><svg class="icon" width="128px" height="128.00px" viewBox="0 0 1024 1024" version="1.1" xmlns="http://www.w3.org/2000/svg"><path d="M661.942857 73.142857H146.285714c-20.114286 0-36.571429 16.457143-36.571428 36.571429v804.571428c0 20.114286 16.457143 36.571429 36.571428 36.571429h731.428572c20.114286 0 36.571429-16.457143 36.571428-36.571429V325.485714L661.942857 73.142857z" fill="#FCD165" /><path d="M661.942857 288.914286c0 20.114286 16.457143 36.571429 36.571429 36.571428H914.285714L661.942857 73.142857v215.771429z" fill="#FFE3A6" /><path d="M334.628571 73.142857h73.142858v73.142857h-73.142858zM407.771429 146.285714h73.142857v73.142857h-73.142857zM334.628571 219.428571h73.142858v73.142858h-73.142858zM407.771429 292.571429h73.142857v73.142857h-73.142857zM334.628571 365.714286h73.142858v73.142857h-73.142858zM444.342857 694.857143h-73.142857c-20.114286 0-36.571429-16.457143-36.571429-36.571429v-109.714285h146.285715v109.714285c0 20.114286-14.628571 36.571429-36.571429 36.571429zM407.771429 438.857143h73.142857v73.142857h-73.142857z" fill="#FFFFFF" /></svg>