<?xml version="1.0" standalone="no"?><!DOCTYPE svg PUBLIC "-//W3C//DTD SVG 1.1//EN" "http://www.w3.org/Graphics/SVG/1.1/DTD/svg11.dtd"><svg t="1637118814786" class="icon" viewBox="0 0 1024 1024" version="1.1" xmlns="http://www.w3.org/2000/svg" p-id="2975" xmlns:xlink="http://www.w3.org/1999/xlink" width="128" height="128"><defs><style type="text/css"></style></defs><path d="M765.883733 289.408v590.327467c0 9.4208-10.094933 16.162133-18.850133 12.8L523.946667 791.748267a36.113067 36.113067 0 0 0-28.945067 0l-223.086933 100.7872c-8.746667 3.362133-18.8416-2.688-18.8416-12.8V289.408H19.7632v690.653867a27.016533 27.016533 0 0 0 26.9312 26.9312h924.9024a27.016533 27.016533 0 0 0 26.9312-26.9312V289.408H765.883733z m231.287467-38.365867c-0.682667-4.0448-2.688-8.081067-5.376-11.4432L826.871467 35.6352c-5.4016-6.0672-12.791467-10.103467-20.881067-10.103467h-590.336a27.648 27.648 0 0 0-20.872533 9.4208l-168.96 204.637867c-2.688 3.362133-4.7104 7.406933-5.384534 11.4432h976.733867z" fill="#fbcb9c" p-id="2976"></path><path d="M556.791467 577.0496c4.4544-8.0896 13.764267-17.211733 27.921066-27.332267 25.898667-18.577067 44.100267-35.2 54.621867-49.7664 12.535467-17.809067 18.833067-38.442667 18.833067-61.909333 0-40.064-13.3376-71.2192-40.0384-93.4912-28.3392-23.867733-66.7904-35.805867-115.3536-35.805867-38.852267 0-71.432533 10.530133-97.732267 31.5648-31.9744 25.489067-47.957333 62.318933-47.957333 110.472534l85.589333-0.605867c2.824533-25.898667 9.813333-44.014933 20.949333-54.331733 11.118933-10.308267 25.992533-15.470933 44.6208-15.470934 16.1792 0 29.329067 4.0448 39.4496 12.1344 12.9536 10.120533 19.413333 26.112 19.413334 47.957334 0 22.664533-12.535467 42.692267-37.623467 60.091733-26.692267 19.029333-44.117333 37.239467-52.206933 54.638933-6.4768 14.1568-9.710933 37.026133-9.710934 68.590934h80.128c-0.017067-20.232533 3.0208-35.822933 9.096534-46.737067zM465.117867 664.456533v85.5808h88.635733V664.456533H465.117867z" fill="#fbcb9c" p-id="2977"></path></svg>