<?xml version="1.0" standalone="no"?><!DOCTYPE svg PUBLIC "-//W3C//DTD SVG 1.1//EN" "http://www.w3.org/Graphics/SVG/1.1/DTD/svg11.dtd"><svg t="1637234803258" class="icon" viewBox="0 0 1024 1024" version="1.1" xmlns="http://www.w3.org/2000/svg" p-id="2506" xmlns:xlink="http://www.w3.org/1999/xlink" width="128" height="128"><defs><style type="text/css"></style></defs><path d="M426.965333 853.333333H426.666667a42.666667 42.666667 0 0 1-42.666667-42.666666 42.666667 42.666667 0 0 0-84.821333-6.741334A42.666667 42.666667 0 0 1 257.024 853.333333H170.666667a128 128 0 0 1-128-128V298.666667a128 128 0 0 1 128-128h85.930666a42.666667 42.666667 0 0 1 42.368 47.701333 42.666667 42.666667 0 0 0 84.778667-0.426667A42.666667 42.666667 0 0 1 426.154667 170.666667L853.333333 170.624a128 128 0 0 1 128 128v426.666667a128 128 0 0 1-128 128H426.965333z m35.072-85.333333H853.333333a42.666667 42.666667 0 0 0 42.666667-42.666667V298.666667a42.666667 42.666667 0 0 0-42.666667-42.666667h-391.253333a128.042667 128.042667 0 0 1-241.493333 0H170.666667a42.666667 42.666667 0 0 0-42.666667 42.666667v426.666666a42.666667 42.666667 0 0 0 42.666667 42.666667h49.92a128.042667 128.042667 0 0 1 241.493333 0z" p-id="2507" fill="#8a8a8a"></path><path d="M554.666667 469.333333h213.333333a42.666667 42.666667 0 0 0 0-85.333333h-213.333333a42.666667 42.666667 0 0 0 0 85.333333zM554.666667 640h213.333333a42.666667 42.666667 0 0 0 0-85.333333h-213.333333a42.666667 42.666667 0 0 0 0 85.333333zM341.333333 384a42.666667 42.666667 0 1 1 0 85.333333 42.666667 42.666667 0 0 1 0-85.333333zM341.333333 554.666667a42.666667 42.666667 0 1 1 0 85.333333 42.666667 42.666667 0 0 1 0-85.333333z" p-id="2508" fill="#8a8a8a"></path></svg>