<?xml version="1.0" standalone="no"?><!DOCTYPE svg PUBLIC "-//W3C//DTD SVG 1.1//EN" "http://www.w3.org/Graphics/SVG/1.1/DTD/svg11.dtd"><svg t="1635480414244" class="icon" viewBox="0 0 1024 1024" version="1.1" xmlns="http://www.w3.org/2000/svg" p-id="1976" xmlns:xlink="http://www.w3.org/1999/xlink" width="128" height="128"><defs><style type="text/css"></style></defs><path d="M887.466667 136.533333H136.533333a68.266667 68.266667 0 0 0-68.266666 68.266667v614.4a68.266667 68.266667 0 0 0 68.266666 68.266667h750.933334a68.266667 68.266667 0 0 0 68.266666-68.266667V204.8a68.266667 68.266667 0 0 0-68.266666-68.266667zM136.533333 204.8h750.933334v614.4H136.533333V204.8z" fill="#444444" p-id="1977"></path><path d="M358.4 375.466667a51.2 51.2 0 1 1-102.4 0 51.2 51.2 0 0 1 102.4 0" fill="#444444" p-id="1978"></path><path d="M750.933333 409.6l48.264534 48.264533-204.8 204.8a34.133333 34.133333 0 0 1-48.264534 0l-112.401066-112.384-163.601067 163.584L221.866667 665.6l187.733333-187.733333a34.133333 34.133333 0 0 1 48.264533 0l112.401067 112.384L750.933333 409.6z" fill="#00B386" p-id="1979"></path></svg>