<svg id="Layer_1" data-name="Layer 1" xmlns="http://www.w3.org/2000/svg" viewBox="0 0 200 200"><defs><style>.cls-1,.cls-10,.cls-11,.cls-12,.cls-13,.cls-14,.cls-15,.cls-16,.cls-22,.cls-5,.cls-7,.cls-9{fill:none;stroke-linecap:round;stroke-linejoin:round;}.cls-1,.cls-10,.cls-11,.cls-13,.cls-15,.cls-5,.cls-7,.cls-9{stroke:#231f20;}.cls-1,.cls-22{stroke-width:0.57px;}.cls-2{fill:blue;}.cls-17,.cls-19,.cls-2,.cls-20,.cls-21,.cls-3,.cls-4,.cls-6,.cls-8{fill-rule:evenodd;}.cls-3{fill:#ff98cb;}.cls-4{fill:#f9d1e3;}.cls-5{stroke-width:0.53px;}.cls-6{fill:#fff;}.cls-7{stroke-width:0.54px;}.cls-8{fill:#231f20;}.cls-12,.cls-9{stroke-width:0.57px;}.cls-10{stroke-width:0.57px;}.cls-11{stroke-width:0.06px;}.cls-12,.cls-22{stroke:#fff;}.cls-13{stroke-width:0.57px;}.cls-14,.cls-16{stroke:red;}.cls-14{stroke-width:0.56px;}.cls-15{stroke-width:0.57px;}.cls-16{stroke-width:0.56px;}.cls-17,.cls-18{fill:#0094d9;}.cls-19{fill:#ffca05;}.cls-20{fill:#f60;}.cls-21{fill:#8dd7f7;}</style></defs><path class="cls-1" d="M116.71,49.49c4.09,3.25,24.11-4,21.45-1.14-3.42,3.69,4.1,5.67,12.33,4.09,4.29-.82,16.33-2.16,15.91-7.18C166,40,139.48,44.89,147,41.39c5.9-2.77,4.43-6-4.14-5.09C129.82,37.71,109.59,43.84,116.71,49.49Z"/><path class="cls-1" d="M33.59,51.15c.15,6.63,26.93,2.31,21.81,4.59-6.29,2.79-7.66,8.8,2.2,7.23,6.45-1,10.22-3.47,6,2.47C60,70.59,66.42,70.72,72.27,70c4.35-.54,25-2.61,22.44-7.43-1.65-3.09-17.77-4.8-22.17-6,.09,0,14.08-6,15.75-11.58,2-6.78-.81-7.74-7.48-8.44C73.74,35.8,33.36,40.71,33.59,51.15Z"/><path class="cls-1" d="M82.53,54.16v.18c.08,1.88.34,20.81.6,21-1.26-.65-4.8-9.08-5.8-10.83a57.57,57.57,0,0,1-3.11-6.39,4.87,4.87,0,0,1-.3-.75"/><path class="cls-2" d="M73.19,21.72C79,20.55,85,25,86.5,31.7S81.57,46.56,79,47.09,66.89,42.63,65.37,35.94,67.36,22.89,73.19,21.72Z"/><path class="cls-1" d="M73.19,21.72C79,20.55,85,25,86.5,31.7S81.57,46.56,79,47.09,66.89,42.63,65.37,35.94,67.36,22.89,73.19,21.72Z"/><path class="cls-2" d="M78.38,47.25,79.49,47a.51.51,0,0,1,.61.39h0a.49.49,0,0,1-.38.6l-1.12.22a.52.52,0,0,1-.61-.39h0A.49.49,0,0,1,78.38,47.25Z"/><path class="cls-1" d="M78.38,47.25,79.49,47a.51.51,0,0,1,.61.39h0a.49.49,0,0,1-.38.6l-1.12.22a.52.52,0,0,1-.61-.39h0A.49.49,0,0,1,78.38,47.25Z"/><path class="cls-3" d="M61.16,36.66c5.17-2.95,12.23-.58,15.77,5.29s0,15.66-2.33,17-12.85-.45-16.39-6.31S56,39.6,61.16,36.66Z"/><path class="cls-1" d="M61.16,36.66c5.17-2.95,12.23-.58,15.77,5.29s0,15.66-2.33,17-12.85-.45-16.39-6.31S56,39.6,61.16,36.66Z"/><path class="cls-3" d="M74.11,59.26l1-.56a.53.53,0,0,1,.71.18h0a.49.49,0,0,1-.18.68l-1,.57a.53.53,0,0,1-.7-.19h0A.49.49,0,0,1,74.11,59.26Z"/><path class="cls-1" d="M74.11,59.26l1-.56a.53.53,0,0,1,.71.18h0a.49.49,0,0,1-.18.68l-1,.57a.53.53,0,0,1-.7-.19h0A.49.49,0,0,1,74.11,59.26Z"/><path class="cls-4" d="M111.51,89.79l3.4,0h.7c1.2-1.57,8.58-9.69,10.59-13.2.67-1.18.34-6,.77-7.06.31-.77,1.51-.85,1.77-.2.49,1.22.54,3.92,1.16,3.33,1.35-1.29,2.44-4.26,3.75-4.48.86-.15,1.12.89.7,1.85a34.43,34.43,0,0,1-1.72,3.09A11.57,11.57,0,0,1,135,71.05c1.1-.74,1.88-.89,1.95.25,0,.83-2.14,3.15-2.71,3.68A5.62,5.62,0,0,1,137,73.74c.85,0,1.3,1.08-.32,2.46-2.38,2-4,2.79-5.21,5.91-1.38,3.59-8,15.19-10.92,18.52-1.77,2.06-4,3.5-6.73,2.66Z"/><path class="cls-1" d="M111.51,89.79l3.4,0h.7c1.2-1.57,8.58-9.69,10.59-13.2.67-1.18.34-6,.77-7.06.31-.77,1.51-.85,1.77-.2.49,1.22.54,3.92,1.16,3.33,1.35-1.29,2.44-4.26,3.75-4.48.86-.15,1.12.89.7,1.85a34.43,34.43,0,0,1-1.72,3.09A11.57,11.57,0,0,1,135,71.05c1.1-.74,1.88-.89,1.95.25,0,.83-2.14,3.15-2.71,3.68A5.62,5.62,0,0,1,137,73.74c.85,0,1.3,1.08-.32,2.46-2.38,2-4,2.79-5.21,5.91-1.38,3.59-8,15.19-10.92,18.52-1.77,2.06-4,3.5-6.73,2.66Z"/><path class="cls-4" d="M98.77,91.44l1.84,8c-2.82,7-8.14,5.7-12.25.4-3.16-4.07-6.55-11-10-14.27-1.43-1.4-4-5.48-1.25-8.14.23-.24-.49-1.61,1.18-2.32.6-.26-.09,0,1.09-.92,2.12-1.63,4.95,2.55,5,2.55,5.1-.22,1.47,5.34,3.37,7.25,1.65,1.66,5.54,5.64,5.54,5.64h3.84Z"/><path class="cls-5" d="M98.77,91.44l1.84,8c-2.82,7-8.14,5.7-12.25.4-3.16-4.07-6.55-11-10-14.27-1.43-1.4-4-5.48-1.25-8.14.23-.24-.49-1.61,1.18-2.32.6-.26-.09,0,1.09-.92,2.12-1.63,4.95,2.55,5,2.55,5.1-.22,1.47,5.34,3.37,7.25,1.65,1.66,5.54,5.64,5.54,5.64h3.84Z"/><path class="cls-5" d="M84.42,76.69c-2,.29-3.79,1.28-3.12,2.91.34.82,1.7.89,2.36.65.14,0,1.12-.37,1.19-.42"/><path class="cls-5" d="M78.83,75.08a12.68,12.68,0,0,0,2,2.23c.63.54,2.78.19.88-2.23"/><path class="cls-5" d="M77.21,77.06c-.06.44,1.18,1.64,1.55,2,1.08.9,2.59.59,2.41-.72L81,77.43"/><path class="cls-5" d="M79.19,79.3a1.27,1.27,0,0,1,.43,2.27,2.25,2.25,0,0,1-2-.33l-.24-.15"/><path class="cls-5" d="M93.05,89.29c.14.21,2.1,2.07,2.1,2.07"/><path class="cls-6" d="M105.16,81.35c-.7,1.46-2.74.82-3,.26-.08-2-1.77-2.23-2.9-1.61-2,1.12-5.73,9.27-5.66,9.77l3.59,0L94.35,110h20.52l-3.35-20.19h3.81c-.52-.93-2.76-6-4.36-8.45S106.68,78.12,105.16,81.35Z"/><path class="cls-7" d="M105.16,81.35c-.7,1.46-2.74.82-3,.26-.08-2-1.77-2.23-2.9-1.61-2,1.12-5.73,9.27-5.66,9.77l3.59,0L94.35,110h20.52l-3.35-20.19h3.81c-.52-.93-2.76-6-4.36-8.45S106.68,78.12,105.16,81.35Z"/><path class="cls-8" d="M115.05,110c1.84,2.24,3.67,6.43,5.42,11.55,1.35,3.94,1.64,4.74,3,9.54l14.89-5.84,3.5,24.1c-.12-.69-12.27,3.49-24.49,6C109,157,104,153.75,102.56,148.72,101.25,144,100,138,99,133.26h0c-.15-.56-.5-.25-.5-.25,0,.28,2.87,12.68,2.87,12.68-.11.66-3.53,12.13-3.48,12.46H72.53c.84-2.61,5.38-20.65,6-23.73.79-3.64,1.52-3.77,3.29-6.4,4.81-7.13,11.94-16.86,12.26-18Z"/><path class="cls-4" d="M101.64,78.41c-.36-1.71.38-3.12,1.78-3.4a.88.88,0,0,1,1,.29l.93,5.55c.21,1.46-2.66,2.17-3.2,1Z"/><path class="cls-9" d="M101.64,78.41c-.36-1.71.38-3.12,1.78-3.4a.88.88,0,0,1,1,.29l.93,5.55c.21,1.46-2.66,2.17-3.2,1Z"/><line class="cls-9" x1="97.54" y1="87.55" x2="97.17" y2="89.79"/><line class="cls-9" x1="111.06" y1="87.63" x2="111.53" y2="89.88"/><path class="cls-4" d="M97,70.77a4.24,4.24,0,0,1,2.55-2.31c2.63-.46,5.13.3,5.76,3.42.42,2-1.18,4.86-3.08,5.74C98,79.57,94.48,75.21,97,70.77Z"/><path class="cls-9" d="M97,70.77a4.24,4.24,0,0,1,2.55-2.31c2.63-.46,5.13.3,5.76,3.42.42,2-1.18,4.86-3.08,5.74C98,79.57,94.48,75.21,97,70.77Z"/><path class="cls-10" d="M98.73,73.65c.13-.3.45-.46.89-.19l.24.19"/><path class="cls-8" d="M99.13,71.83a.32.32,0,0,1,.33.34.37.37,0,0,1-.36.35.33.33,0,0,1-.33-.35A.36.36,0,0,1,99.13,71.83Z"/><path class="cls-11" d="M99.13,71.83a.32.32,0,0,1,.33.34.37.37,0,0,1-.36.35.33.33,0,0,1-.33-.35A.36.36,0,0,1,99.13,71.83Z"/><path class="cls-8" d="M101.05,71.83a.32.32,0,0,1,.33.34.37.37,0,0,1-.36.35.33.33,0,0,1-.33-.35A.36.36,0,0,1,101.05,71.83Z"/><path class="cls-11" d="M101.05,71.83a.32.32,0,0,1,.33.34.37.37,0,0,1-.36.35.33.33,0,0,1-.33-.35A.36.36,0,0,1,101.05,71.83Z"/><path class="cls-8" d="M110.54,77.14C109.31,70.82,108.28,67,103,67c-4.16,0-5.8,3.41-5.52,3.39h5.9l1.35,6.81Z"/><path class="cls-9" d="M110.54,77.14C109.31,70.82,108.28,67,103,67c-4.16,0-5.8,3.41-5.52,3.39h5.9l1.35,6.81Z"/><path class="cls-12" d="M116.91,114.18h-4.29c.69,1.38,3.67,9.77,3.77,10.18l5.14,2.12"/><path class="cls-6" d="M99.28,175.76l-1.91-17.82H74.7c0,1.27-.55,3.59-3.59,5.86-1.69,1.27-5.16,2.4-7.7,3.95-2.29,1.4-5.28,3.81-5.5,8H82.84l2.31-2.65.64,2.65Z"/><path class="cls-13" d="M99.28,175.76l-1.91-17.82H74.7c0,1.27-.55,3.59-3.59,5.86-1.69,1.27-5.16,2.4-7.7,3.95-2.29,1.4-5.28,3.81-5.5,8H82.84l2.31-2.65.64,2.65Z"/><line class="cls-13" x1="58.65" y1="172.68" x2="98.85" y2="172.68"/><path class="cls-6" d="M91.14,160a2.11,2.11,0,0,1,2.11,2.23A2.31,2.31,0,0,1,91,164.44a2.12,2.12,0,0,1-2.11-2.24A2.31,2.31,0,0,1,91.14,160Z"/><path class="cls-14" d="M91.14,160a2.11,2.11,0,0,1,2.11,2.23A2.31,2.31,0,0,1,91,164.44a2.12,2.12,0,0,1-2.11-2.24A2.31,2.31,0,0,1,91.14,160Z"/><path class="cls-13" d="M67.66,165.64c2.14,0,4.55,6,4.12,7"/><path class="cls-13" d="M70.56,168.5c4.23-.9,9.66-5.7,10-10.56"/><path class="cls-6" d="M155.47,119.06l-17.22,6.64,2.47,22.54c1.24-.31,3.44-.66,6.12,2.07,1.38,1.4,2.9,4.51,4.7,6.64,1.62,1.92,4.45,4.57,8.47,3.76l-2.75-25.12L154.42,134l2.52-1.49Z"/><path class="cls-15" d="M155.47,119.06l-17.22,6.64,2.47,22.54c1.24-.31,3.44-.66,6.12,2.07,1.38,1.4,2.9,4.51,4.7,6.64,1.62,1.92,4.45,4.57,8.47,3.76l-2.75-25.12L154.42,134l2.52-1.49Z"/><line class="cls-15" x1="156.89" y1="160.59" x2="152.5" y2="120.46"/><path class="cls-6" d="M140.88,131a2.23,2.23,0,0,1,2-2.44,2.19,2.19,0,0,1,2.47,1.92,2.25,2.25,0,0,1-2,2.45A2.21,2.21,0,0,1,140.88,131Z"/><path class="cls-16" d="M140.88,131a2.23,2.23,0,0,1,2-2.44,2.19,2.19,0,0,1,2.47,1.92,2.25,2.25,0,0,1-2,2.45A2.21,2.21,0,0,1,140.88,131Z"/><path class="cls-15" d="M149,153.26c-.27-2.11,5.38-6.06,6.44-5.88"/><path class="cls-15" d="M151.5,149.66c-1.35-4-6.63-8.15-11.43-7.28"/><path class="cls-6" d="M102.56,73.83A1.48,1.48,0,1,1,100,75.27Z"/><path class="cls-1" d="M102.56,73.83A1.48,1.48,0,1,1,100,75.27Z"/><path class="cls-1" d="M130.17,74.86a5,5,0,0,1-.59,3.6"/><line class="cls-1" x1="115.76" y1="89.66" x2="114.02" y2="91.85"/><path class="cls-1" d="M82.63,76.2c3.61-2.5,15.09-22.67,16.13-28.61"/><path class="cls-1" d="M82.63,76.2c1.24-1.18,6.28-18.77,6.5-22.94"/><path class="cls-1" d="M82.63,76.2c.23-1.08-2.27-25.07-2.84-28.61"/><path class="cls-1" d="M120.92,64.55c2.24,0,7.17,1.22,9.52,2.93"/><path class="cls-1" d="M114.33,66.45c2.66-.23,8.07,0,10.43,1.12"/><path class="cls-1" d="M138.42,76.75a11.78,11.78,0,0,1,1.74,4.07"/><path class="cls-1" d="M77.52,81.47a26.58,26.58,0,0,0-6,13.59"/><path class="cls-1" d="M78.68,81.92a47.57,47.57,0,0,0-4.77,9.9"/><path class="cls-1" d="M80.68,79.75A40.51,40.51,0,0,0,78.93,90"/><path class="cls-17" d="M89.09,26.46c5.61,0,10.16,5.54,10.16,12.38S91.61,52.4,89.09,52.4,78.93,45.67,78.93,38.84,83.48,26.46,89.09,26.46Z"/><path class="cls-1" d="M89.09,26.46c5.61,0,10.16,5.54,10.16,12.38S91.61,52.4,89.09,52.4,78.93,45.67,78.93,38.84,83.48,26.46,89.09,26.46Z"/><rect class="cls-18" x="88.05" y="52.45" width="2.03" height="1.02" rx="0.51"/><rect class="cls-1" x="88.05" y="52.45" width="2.03" height="1.02" rx="0.51"/><path class="cls-19" d="M103,32c5.35,1.72,8,8.39,5.9,14.89S97.43,57.5,95,56.73s-7.62-9.51-5.53-16S97.62,30.32,103,32Z"/><path class="cls-1" d="M103,32c5.35,1.72,8,8.39,5.9,14.89S97.43,57.5,95,56.73s-7.62-9.51-5.53-16S97.62,30.32,103,32Z"/><path class="cls-19" d="M94.51,56.61l1,.31a.51.51,0,0,1,.33.64h0a.5.5,0,0,1-.64.33l-1-.31a.52.52,0,0,1-.33-.64h0A.5.5,0,0,1,94.51,56.61Z"/><path class="cls-1" d="M94.51,56.61l1,.31a.51.51,0,0,1,.33.64h0a.5.5,0,0,1-.64.33l-1-.31a.52.52,0,0,1-.33-.64h0A.5.5,0,0,1,94.51,56.61Z"/><path class="cls-20" d="M78.09,31.11c5.58-.59,10.69,4.45,11.4,11.24s-6.17,14.3-8.68,14.56S70,51.28,69.28,44.49,72.5,31.7,78.09,31.11Z"/><path class="cls-1" d="M78.09,31.11c5.58-.59,10.69,4.45,11.4,11.24s-6.17,14.3-8.68,14.56S70,51.28,69.28,44.49,72.5,31.7,78.09,31.11Z"/><path class="cls-20" d="M80.29,57l1-.11a.51.51,0,0,1,.56.46h0a.51.51,0,0,1-.45.55l-1,.11a.5.5,0,0,1-.55-.45h0A.51.51,0,0,1,80.29,57Z"/><path class="cls-1" d="M80.29,57l1-.11a.51.51,0,0,1,.56.46h0a.51.51,0,0,1-.45.55l-1,.11a.5.5,0,0,1-.55-.45h0A.51.51,0,0,1,80.29,57Z"/><path class="cls-21" d="M138.29,23.14c4.55,3.84,4.77,11.28.48,16.63s-14.7,5.4-16.74,3.68-4-12.21.26-17.56S133.73,19.31,138.29,23.14Z"/><path class="cls-1" d="M138.29,23.14c4.55,3.84,4.77,11.28.48,16.63s-14.7,5.4-16.74,3.68-4-12.21.26-17.56S133.73,19.31,138.29,23.14Z"/><path class="cls-21" d="M121.55,43.11l.87.73a.53.53,0,0,1,.07.72h0a.5.5,0,0,1-.71.07l-.87-.73a.53.53,0,0,1-.07-.72h0A.5.5,0,0,1,121.55,43.11Z"/><path class="cls-1" d="M121.55,43.11l.87.73a.53.53,0,0,1,.07.72h0a.5.5,0,0,1-.71.07l-.87-.73a.53.53,0,0,1-.07-.72h0A.5.5,0,0,1,121.55,43.11Z"/><path class="cls-1" d="M121.78,44.63c-6.25,4.35,1,9.65-4.62,11.06-1.79.45-6.52-1-6.25,3.5.15,2.7-.67,4.12-3.63,4.29H107"/><path class="cls-1" d="M77.46,81.36a11,11,0,0,1-4.78,3.27"/><path class="cls-1" d="M98,39.83a5.12,5.12,0,0,0-.27,1.31"/><path class="cls-1" d="M101.29,40.5c-.16.4-.39,1.12-.48,1.43"/><path class="cls-1" d="M93.64,43.61c-1.84,8.12,7.8,10.14,9.64,2.7"/><path class="cls-1" d="M78.42,47.43a1.77,1.77,0,0,0,3.51-.34"/><path class="cls-1" d="M126,33.75a1.77,1.77,0,0,0-.13-.69c-.27-.5,0-.8.41-.65.22.1.55.31.78,0s-.15-.56-.21-.87,0-.49.45-.42c.17,0,.72.42,1,.11"/><path class="cls-1" d="M128.09,27.3c1.16-.16,1.49-.59,1.4.88"/><path class="cls-1" d="M130.53,28.93c1.65-.49,1.05-.44,1.62,1"/><path class="cls-1" d="M63.55,47a1.83,1.83,0,0,0-1.8.6"/><path class="cls-1" d="M65.4,45.09a1.82,1.82,0,0,1,1-1.57"/><path class="cls-1" d="M72.06,27.83a5.94,5.94,0,0,0-1,1.73"/><path class="cls-1" d="M74.53,26.81a6.71,6.71,0,0,1,1.69.11"/><path class="cls-1" d="M72.87,29.52s.2.21.23.22"/><path class="cls-1" d="M75.31,28.52c0,.05.15.3.15.3"/><path class="cls-1" d="M88.78,32.38c0,.23,0,.27,0,.45"/><path class="cls-1" d="M89.65,32.49a4.08,4.08,0,0,0-.07.42"/><path class="cls-1" d="M88.36,34.34a.73.73,0,0,0,1.4.35"/><path class="cls-1" d="M93,42.78c.37,1,1.06.86,1.77.43"/><path class="cls-1" d="M102.7,45.52c.37,1,1.06.86,1.77.43"/><path class="cls-8" d="M78.22,40.3a.32.32,0,0,1,0,.64.32.32,0,1,1,0-.64"/><path class="cls-8" d="M81,40.24a.32.32,0,0,1,.32.32.33.33,0,1,1-.65,0,.32.32,0,0,1,.33-.32"/><path class="cls-1" d="M65.46,50.08c0,.87,3,1.26,3.24-.93.14-1.34-.43-1.88-.92-1.61s-.11,1-.68,1.56S65.42,49.13,65.46,50.08Z"/><line class="cls-22" x1="98.26" y1="131.73" x2="101.71" y2="146.39"/></svg>