<?xml version="1.0" standalone="no"?><!DOCTYPE svg PUBLIC "-//W3C//DTD SVG 1.1//EN" "http://www.w3.org/Graphics/SVG/1.1/DTD/svg11.dtd"><svg t="1642756081158" class="icon" viewBox="0 0 1024 1024" version="1.1" xmlns="http://www.w3.org/2000/svg" p-id="2116" xmlns:xlink="http://www.w3.org/1999/xlink" width="128" height="128"><defs><style type="text/css"></style></defs><path d="M342.03109693 481.07681226m-46.34857177 0a46.34857177 46.34857177 0 1 0 92.69714354 0 46.34857177 46.34857177 0 1 0-92.69714355 0Z" fill="#ffffff" p-id="2117"></path><path d="M390.84193659 849.62037754c-3.76582146 0-7.53164291-0.57935715-11.22504473-1.81049109-9.99391079-3.25888396-17.96007157-10.71810723-22.01557159-20.34991979l-28.46091987-68.21930409H234.12582826C182.85272073 759.16824293 141.21142578 717.52694798 141.21142578 666.32626009V295.89978409C141.21142578 244.6990962 182.85272073 202.9853816 234.12582826 202.9853816h555.82076312c51.20068789 0 92.91440249 41.64129496 92.91440249 92.91440249v370.426476c0 51.20068789-41.64129496 92.91440249-92.91440249 92.91440248H551.46870567L409.30894566 844.47858286c-5.57631255 3.40372325-12.02166081 5.14179469-18.46700907 5.14179468z m-13.25279474-58.15297366s-0.07241965 0 0 1e-8zM234.12582826 264.83175707c-17.16345549 0-31.06802703 13.97699119-31.06802702 31.06802701v370.42647601c0 17.16345549 13.97699119 31.06802703 31.06802703 31.06802702h136.29376887l32.80609847 78.72015238L534.37766982 697.39428711h255.56892156c17.16345549 0 31.06802703-13.97699119 31.06802703-31.06802703V295.89978409c0-17.16345549-13.97699119-31.06802703-31.06802703-31.06802702H234.12582826z" fill="#ffffff" p-id="2118"></path><path d="M512 481.07681226m-46.34857177 0a46.34857177 46.34857177 0 1 0 92.69714354 0 46.34857177 46.34857177 0 1 0-92.69714355 0Z" fill="#ffffff" p-id="2119"></path><path d="M681.96890307 481.07681226m-46.34857178 0a46.34857177 46.34857177 0 1 0 92.69714356 0 46.34857177 46.34857177 0 1 0-92.69714355 0Z" fill="#ffffff" p-id="2120"></path></svg>