<?xml version="1.0" standalone="no"?><!DOCTYPE svg PUBLIC "-//W3C//DTD SVG 1.1//EN" "http://www.w3.org/Graphics/SVG/1.1/DTD/svg11.dtd"><svg class="icon" width="128px" height="128.00px" viewBox="0 0 1024 1024" version="1.1" xmlns="http://www.w3.org/2000/svg"><path d="M507.4432 510.8224m-450.816 0a450.816 450.816 0 1 0 901.632 0 450.816 450.816 0 1 0-901.632 0Z" fill="#FF9552" /><path d="M806.0928 382.208a50.10432 50.10432 0 0 0-49.2544 59.392l-129.5872 78.4896-93.4912-182.3232c20.9408-10.7008 35.328-32.4608 35.328-57.6 0-35.7376-28.9792-64.6656-64.6656-64.6656-35.7376 0-64.6656 28.9792-64.6656 64.6656 0 26.2144 15.616 48.6912 37.9904 58.88l-86.8352 181.0432L257.2288 439.808c0.3584-2.4576 0.6144-4.9664 0.6144-7.5264 0-27.6992-22.4256-50.1248-50.1248-50.1248s-50.1248 22.4256-50.1248 50.1248c0 24.4224 17.4592 44.7488 40.5504 49.2032l56.1664 279.6032c5.5296 27.4432 29.6448 47.2064 57.6512 47.2064h390.7072c28.0064 0 52.1216-19.7632 57.6512-47.2064l56.2176-279.7568c22.6816-4.8128 39.7312-24.9344 39.7312-49.0496-0.0512-27.648-22.528-50.0736-50.176-50.0736z m-184.6272 361.0624H392.2944c-15.5136 0-28.0576-12.544-28.0576-28.0576 0-15.5136 12.544-28.0576 28.0576-28.0576h229.1712c15.5136 0 28.0576 12.544 28.0576 28.0576 0 15.5136-12.544 28.0576-28.0576 28.0576z" fill="#FFFFFF" /><path d="M756.48 439.2448c-0.0512-3.9936-0.1024-7.9872-0.3072-11.9808-0.1536 1.6384-0.256 3.328-0.256 5.0176 0 2.4064 0.256 4.7104 0.5632 6.9632z" fill="#FF7E3E" /></svg>