<?xml version="1.0" standalone="no"?><!DOCTYPE svg PUBLIC "-//W3C//DTD SVG 1.1//EN" "http://www.w3.org/Graphics/SVG/1.1/DTD/svg11.dtd"><svg t="1636979788275" class="icon" viewBox="0 0 1024 1024" version="1.1" xmlns="http://www.w3.org/2000/svg" p-id="9460" xmlns:xlink="http://www.w3.org/1999/xlink" width="128" height="128"><defs><style type="text/css"></style></defs><path d="M444.16 204.384l394.112 394.144a37.984 37.984 0 0 1-6.72 59.072l-465.824 291.136a197.248 197.248 0 0 1-271.776-271.776l291.104-465.824a38.016 38.016 0 0 1 59.104-6.72zM186.56 672.032l-28.16 45.216a121.248 121.248 0 0 0 167.04 167.04l45.088-28.224-183.904-184H186.56z m116.928-187.04l-75.52 120.96 208.768 208.704 120.896-75.52-254.08-254.144h-0.064z m120.704-193.056l-79.36 126.912 278.944 278.944 126.944-79.296L424.192 291.936z m310.464-81.664V38.016a37.984 37.984 0 1 0-76 0V210.24a38.016 38.016 0 0 0 76 0zM836 426.24l134.784-87.904a38.016 38.016 0 1 0-41.568-63.616l-134.752 87.904a37.984 37.984 0 1 0 41.536 63.648z" fill="#EA5947" p-id="9461"></path><path d="M875.584 225.728l41.92-41.92a37.984 37.984 0 0 0-53.76-53.696l-41.92 41.92a37.984 37.984 0 0 0 53.696 53.696h0.064zM899.328 540.864h11.008a38.016 38.016 0 0 0 0-76h-11.008a37.984 37.984 0 1 0 0 76zM696.672 388.864h11.008a38.016 38.016 0 0 0 0-76h-11.008a38.016 38.016 0 0 0 0 76zM579.584 133.152l-22.464-51.968a38.016 38.016 0 1 0-69.76 30.144l22.464 51.904a37.984 37.984 0 0 0 69.76-30.08z" fill="#F7B500" p-id="9462"></path></svg>