<?xml version="1.0" standalone="no"?><!DOCTYPE svg PUBLIC "-//W3C//DTD SVG 1.1//EN" "http://www.w3.org/Graphics/SVG/1.1/DTD/svg11.dtd"><svg t="1634207792816" class="icon" viewBox="0 0 1024 1024" version="1.1" xmlns="http://www.w3.org/2000/svg" p-id="2358" xmlns:xlink="http://www.w3.org/1999/xlink" width="128" height="128"><defs><style type="text/css"></style></defs><path d="M602 927.1a90.3 90.3 0 0 0-180.6 0 11.3 11.3 0 0 1-11.3 11.2 13.1 13.1 0 0 1-4.3-0.8l-122.2-50.7a11.4 11.4 0 0 1-3.7-18.4 90.3 90.3 0 1 0-127.7-127.7 10.3 10.3 0 0 1-14.5 0 11.9 11.9 0 0 1-2.2-3.3L85.9 617.5a11.2 11.2 0 0 1 6-14.7 12.6 12.6 0 0 1 4.3-0.8 90.3 90.3 0 0 0 0-180.6A11.3 11.3 0 0 1 85 410.1a11.1 11.1 0 0 1 0.9-4.3l50.6-122.2a11.1 11.1 0 0 1 14.6-6.1 13.1 13.1 0 0 1 3.7 2.4 90.3 90.3 0 0 0 127.7-127.7 10.1 10.1 0 0 1 0-14.4 9.1 9.1 0 0 1 3.3-2.2l120-49.7a11.2 11.2 0 0 1 14.7 6 10.7 10.7 0 0 1 0.9 4.3 90.3 90.3 0 0 0 180.6 0A11.2 11.2 0 0 1 613.2 85a10.7 10.7 0 0 1 4.3 0.9l122.7 50.8a9.5 9.5 0 0 1 5.1 12.4 11 11 0 0 1-2 3.1A90.3 90.3 0 0 0 871 279.9a9.6 9.6 0 0 1 13.5 0 10.6 10.6 0 0 1 2.1 3.1l50.9 122.8a11.3 11.3 0 0 1-6.1 14.7 10.7 10.7 0 0 1-4.3 0.9 90.3 90.3 0 0 0 0 180.6 11.2 11.2 0 0 1 11.2 11.2 12.6 12.6 0 0 1-0.8 4.3l-50.6 122.1a11.3 11.3 0 0 1-14.8 6.1 13.1 13.1 0 0 1-3.7-2.4A90.3 90.3 0 1 0 740.7 871a10.4 10.4 0 0 1 0 14.6 9.5 9.5 0 0 1-3.4 2.2l-119.8 49.7a11.4 11.4 0 0 1-14.7-6.1 12.6 12.6 0 0 1-0.8-4.3z m-91.6-197.4c121.1 0 219.3-98.2 219.3-219.3S631.5 291 510.4 291 291 389.2 291 510.4s98.2 219.3 219.4 219.3z" p-id="2359" fill="#8a8a8a"></path></svg>