<?xml version="1.0" standalone="no"?><!DOCTYPE svg PUBLIC "-//W3C//DTD SVG 1.1//EN" "http://www.w3.org/Graphics/SVG/1.1/DTD/svg11.dtd"><svg t="1636087804187" class="icon" viewBox="0 0 1133 1024" version="1.1" xmlns="http://www.w3.org/2000/svg" p-id="3759" xmlns:xlink="http://www.w3.org/1999/xlink" width="141.625" height="128"><defs><style type="text/css"></style></defs><path d="M54.865734 383.997385a54.844817 54.844817 0 0 1 54.844817 54.782066v146.420181a54.865734 54.865734 0 0 1-109.710551 0v-146.420181a54.844817 54.844817 0 0 1 54.865734-54.782066z m1023.979083 0A54.844817 54.844817 0 0 1 1133.710551 438.779451v146.420181a54.865734 54.865734 0 0 1-109.710551 0v-146.420181a54.844817 54.844817 0 0 1 54.844817-54.782066zM310.850046 182.85789a54.844817 54.844817 0 0 1 54.865734 54.844817V786.276376a54.865734 54.865734 0 0 1-109.710551 0V237.702707a54.844817 54.844817 0 0 1 54.844817-54.844817z m512.010459 0a54.844817 54.844817 0 0 1 54.844816 54.844817V786.276376a54.865734 54.865734 0 0 1-109.71055 0V237.702707a54.844817 54.844817 0 0 1 54.865734-54.844817zM566.855275 0a54.865734 54.865734 0 0 1 54.865734 54.844817v914.289449a54.865734 54.865734 0 0 1-109.731468 0V54.844817A54.865734 54.865734 0 0 1 566.855275 0z" p-id="3760" fill="#8a8a8a"></path></svg>