<?xml version="1.0" standalone="no"?><!DOCTYPE svg PUBLIC "-//W3C//DTD SVG 1.1//EN" "http://www.w3.org/Graphics/SVG/1.1/DTD/svg11.dtd"><svg t="1635480537210" class="icon" viewBox="0 0 1024 1024" version="1.1" xmlns="http://www.w3.org/2000/svg" p-id="2712" xmlns:xlink="http://www.w3.org/1999/xlink" width="128" height="128"><defs><style type="text/css"></style></defs><path d="M512 34.133333c-123.153067 0-223.761067 100.625067-223.761067 223.761067v212.1728c0 123.153067 100.608 223.761067 223.744 223.761067l5.410134-0.068267c121.156267-3.140267 218.368-102.724267 218.368-223.6928V257.8944c0-123.136-100.625067-223.744-223.761067-223.744z m0 68.266667c85.435733 0 155.477333 70.058667 155.477333 155.4944v212.1728c0 83.933867-67.669333 153.258667-151.415466 155.4432l-4.5056 0.0512c-84.992 0-155.050667-70.0416-155.050667-155.477333V257.877333c0-85.435733 70.0416-155.477333 155.477333-155.477333z" fill="#444444" p-id="2713"></path><path d="M853.333333 455.5776a34.133333 34.133333 0 0 1 34.133334 34.133333c0 196.727467-169.301333 356.727467-375.466667 356.727467S136.533333 686.4384 136.533333 489.710933a34.133333 34.133333 0 1 1 68.266667 0c0 158.139733 137.898667 288.4608 307.2 288.4608s307.2-130.321067 307.2-288.4608a34.133333 34.133333 0 0 1 34.133333-34.133333z" fill="#444444" p-id="2714"></path><path d="M512 778.1888a34.133333 34.133333 0 0 1 34.030933 31.573333l0.1024 2.56V955.733333a34.133333 34.133333 0 0 1-68.181333 2.542934l-0.085333-2.56v-143.394134a34.133333 34.133333 0 0 1 34.133333-34.133333z" fill="#444444" p-id="2715"></path><path d="M477.866667 290.133333v204.8h-68.266667V290.133333a34.133333 34.133333 0 1 1 68.266667 0z" fill="#00B386" p-id="2716"></path></svg>