<svg id="Layer_1" data-name="Layer 1" xmlns="http://www.w3.org/2000/svg" viewBox="0 0 200 200"><defs><style>.cls-1{fill:#f9d1e3;}.cls-1,.cls-12,.cls-17,.cls-4,.cls-9{fill-rule:evenodd;}.cls-11,.cls-13,.cls-14,.cls-16,.cls-18,.cls-19,.cls-2,.cls-20,.cls-21,.cls-22,.cls-23,.cls-24,.cls-25,.cls-26,.cls-27,.cls-28,.cls-3,.cls-5,.cls-6,.cls-8{fill:none;stroke-linecap:round;stroke-linejoin:round;}.cls-11,.cls-13,.cls-14,.cls-16,.cls-18,.cls-2,.cls-20,.cls-23,.cls-24,.cls-25,.cls-26,.cls-27,.cls-3,.cls-5,.cls-6,.cls-8{stroke:#231f20;}.cls-2,.cls-22{stroke-width:0.57px;}.cls-3{stroke-width:0.57px;}.cls-10,.cls-4{fill:#231f20;}.cls-5{stroke-width:0.06px;}.cls-6{stroke-width:0.57px;}.cls-7,.cls-9{fill:#0094d9;}.cls-21,.cls-8{stroke-width:0.57px;}.cls-11{stroke-width:0.56px;}.cls-12{fill:#f60;}.cls-13{stroke-width:0.57px;}.cls-14{stroke-width:0.52px;}.cls-15{fill:#ffca05;}.cls-16{stroke-width:0.57px;}.cls-17{fill:#fff;}.cls-18{stroke-width:0.57px;}.cls-19,.cls-21{stroke:red;}.cls-19{stroke-width:0.57px;}.cls-20{stroke-width:0.57px;}.cls-22,.cls-28{stroke:#fff;}.cls-23{stroke-width:0.55px;}.cls-24{stroke-width:0.57px;}.cls-25{stroke-width:0.57px;}.cls-26{stroke-width:0.55px;}.cls-27{stroke-width:0.57px;}.cls-28{stroke-width:0.57px;}</style></defs><path class="cls-1" d="M116.33,71.27c-.44-1.71.23-3.12,1.61-3.4a.93.93,0,0,1,1,.29l1.2,5.55c.28,1.46-2.54,2.17-3.15,1Z"/><path class="cls-2" d="M116.33,71.27c-.44-1.71.23-3.12,1.61-3.4a.93.93,0,0,1,1,.29l1.2,5.55c.28,1.46-2.54,2.17-3.15,1Z"/><path class="cls-1" d="M111.29,63.63a4,4,0,0,1,2.44-2.31c2.6-.47,5.14.3,5.93,3.41a5.65,5.65,0,0,1-2.8,5.75C112.74,72.42,109,68.06,111.29,63.63Z"/><path class="cls-2" d="M111.29,63.63a4,4,0,0,1,2.44-2.31c2.6-.47,5.14.3,5.93,3.41a5.65,5.65,0,0,1-2.8,5.75C112.74,72.42,109,68.06,111.29,63.63Z"/><path class="cls-3" d="M113.38,66.76c.12-.31.44-.46.89-.2l.25.2"/><path class="cls-4" d="M113.59,65a.35.35,0,0,1,.35.35.35.35,0,0,1-.69,0A.35.35,0,0,1,113.59,65Z"/><path class="cls-5" d="M113.59,65a.35.35,0,0,1,.35.35.35.35,0,0,1-.69,0A.35.35,0,0,1,113.59,65Z"/><path class="cls-4" d="M115.51,65a.35.35,0,0,1,.35.35.35.35,0,0,1-.35.34.34.34,0,0,1-.34-.34A.35.35,0,0,1,115.51,65Z"/><path class="cls-5" d="M115.51,65a.35.35,0,0,1,.35.35.35.35,0,0,1-.35.34.34.34,0,0,1-.34-.34A.35.35,0,0,1,115.51,65Z"/><path class="cls-4" d="M125.17,70c-1.55-6.31-2.77-10.16-8.08-10.18-4.16,0-5.63,3.41-5.35,3.38h5.9l1.69,6.8Z"/><path class="cls-2" d="M125.17,70c-1.55-6.31-2.77-10.16-8.08-10.18-4.16,0-5.63,3.41-5.35,3.38h5.9l1.69,6.8Z"/><path class="cls-6" d="M116,68.18a1,1,0,0,1-1.45.76"/><rect class="cls-7" x="96.3" y="157.48" width="2.61" height="18.29"/><rect class="cls-8" x="96.3" y="157.48" width="2.61" height="18.29"/><rect class="cls-7" x="83.36" y="157.48" width="2.6" height="18.29"/><rect class="cls-8" x="83.36" y="157.48" width="2.6" height="18.29"/><rect class="cls-7" x="57.67" y="157.48" width="2.61" height="18.29"/><rect class="cls-8" x="57.67" y="157.48" width="2.61" height="18.29"/><rect class="cls-7" x="55.07" y="157.48" width="2.6" height="18.29"/><rect class="cls-8" x="55.07" y="157.48" width="2.6" height="18.29"/><rect class="cls-7" x="41.94" y="157.48" width="2.6" height="18.29"/><rect class="cls-8" x="41.94" y="157.48" width="2.6" height="18.29"/><path class="cls-9" d="M48.74,95.75H91.33a7.59,7.59,0,0,1,7.57,7.57v54.16H48.74Z"/><path class="cls-8" d="M48.74,95.75H91.33a7.59,7.59,0,0,1,7.57,7.57v54.16H48.74Z"/><rect class="cls-10" x="60.24" y="108.82" width="36.2" height="2.97"/><rect class="cls-11" x="60.24" y="108.82" width="36.2" height="2.97"/><path class="cls-9" d="M49.74,95.75h0a7.84,7.84,0,0,0-7.82,7.82v53.85H57.56V103.57A7.84,7.84,0,0,0,49.74,95.75Z"/><path class="cls-8" d="M49.74,95.75h0a7.84,7.84,0,0,0-7.82,7.82v53.85H57.56V103.57A7.84,7.84,0,0,0,49.74,95.75Z"/><path class="cls-4" d="M106.24,48.54h0A4.79,4.79,0,0,1,108,55.07L91.45,83.32A4.78,4.78,0,0,1,83.2,78.5L99.71,50.25A4.78,4.78,0,0,1,106.24,48.54Z"/><path class="cls-8" d="M106.24,48.54h0A4.79,4.79,0,0,1,108,55.07L91.45,83.32A4.78,4.78,0,0,1,83.2,78.5L99.71,50.25A4.78,4.78,0,0,1,106.24,48.54Z"/><path class="cls-12" d="M103.31,53.56h0A4.78,4.78,0,0,1,105,60.09L94.38,78.3a4.77,4.77,0,0,1-8.24-4.82L96.78,55.27A4.78,4.78,0,0,1,103.31,53.56Z"/><path class="cls-13" d="M103.31,53.56h0A4.78,4.78,0,0,1,105,60.09L94.38,78.3a4.77,4.77,0,0,1-8.24-4.82L96.78,55.27A4.78,4.78,0,0,1,103.31,53.56Z"/><path class="cls-1" d="M113.51,86.48c-.21.85-3.11,17.24-3.11,17.24-4.64-.53-10.23-8.91-13.15-17.24Z"/><path class="cls-14" d="M113.51,86.48c-.21.85-3.11,17.24-3.11,17.24-4.64-.53-10.23-8.91-13.15-17.24Z"/><rect class="cls-15" x="62.02" y="71.33" width="43.51" height="32.38"/><rect class="cls-16" x="62.02" y="71.33" width="43.51" height="32.38"/><path class="cls-17" d="M134.69,175.53l-5.06-17.59H107c.2,1.27.68,3-2.56,5.86-1.45,1.29-4.73,2.4-7,3.95-2,1.4-5.3,4.53-5.39,8h26.24l1.84-2.65,1.09,2.42Z"/><path class="cls-18" d="M134.69,175.53l-5.06-17.59H107c.2,1.27.68,3-2.56,5.86-1.45,1.29-4.73,2.4-7,3.95-2,1.4-5.3,4.53-5.39,8h26.24l1.84-2.65,1.09,2.42Z"/><line class="cls-18" x1="92.8" y1="172.68" x2="133.73" y2="172.68"/><path class="cls-17" d="M124.1,160a2.22,2.22,0,0,1,2.18,2.29,2.27,2.27,0,0,1-2.21,2.3,2.23,2.23,0,0,1-2.19-2.3A2.26,2.26,0,0,1,124.1,160Z"/><path class="cls-19" d="M124.1,160a2.22,2.22,0,0,1,2.18,2.29,2.27,2.27,0,0,1-2.21,2.3,2.23,2.23,0,0,1-2.19-2.3A2.26,2.26,0,0,1,124.1,160Z"/><path class="cls-18" d="M101.29,165.64c2.13,0,5.62,6,5.36,7"/><path class="cls-18" d="M104.69,168.5c4.08-.9,8.65-5.7,8.17-10.56"/><path class="cls-4" d="M117.65,101.76s-7.47,0-7.22-.06c-.32.44-9.13,52.75-10,56.24h52.23c-.9-1.85-8.48-28.76-14.89-44.33-2.31-5.61-4.63-9.55-6.79-11.59l-13.3-.19a.56.56,0,0,0,0-.07"/><path class="cls-17" d="M158.08,175.51l-5.71-17.58H129.7c.26,1.27.79,3-2.34,5.86-1.4,1.28-4.64,2.39-6.85,4-2,1.4-5.14,4.52-5.1,8h26.25l1.74-2.65,1.18,2.41Z"/><path class="cls-20" d="M158.08,175.51l-5.71-17.58H129.7c.26,1.27.79,3-2.34,5.86-1.4,1.28-4.64,2.39-6.85,4-2,1.4-5.14,4.52-5.1,8h26.25l1.74-2.65,1.18,2.41Z"/><line class="cls-20" x1="116.08" y1="172.66" x2="157.01" y2="172.66"/><path class="cls-17" d="M146.9,160a2.34,2.34,0,0,1,2.28,2.29,2.15,2.15,0,0,1-2.11,2.3,2.36,2.36,0,0,1-2.29-2.3A2.15,2.15,0,0,1,146.9,160Z"/><path class="cls-21" d="M146.9,160a2.34,2.34,0,0,1,2.28,2.29,2.15,2.15,0,0,1-2.11,2.3,2.36,2.36,0,0,1-2.29-2.3A2.15,2.15,0,0,1,146.9,160Z"/><path class="cls-20" d="M124.31,165.63c2.13,0,5.84,6,5.62,7"/><path class="cls-20" d="M127.82,168.49c4-.9,8.44-5.7,7.77-10.56"/><path class="cls-22" d="M133.64,106.54h-4.29c.78,1.39,4.32,9.78,4.44,10.19l5.28,2.12"/><path class="cls-17" d="M108.14,84.39c1.74-4.09,3.67-11.56,6.23-12,2.23-.41,2.25,1.57,2.46,1.83-.2,1.33,2.75,1.57,3.36-1,.25-1.09,1.32-1.38,2.33-1.39,4,0,7.61,10,8.93,13.16h-9.57l1.94,17-13.18,0,2.65-17.55Z"/><path class="cls-23" d="M108.14,84.39c1.74-4.09,3.67-11.56,6.23-12,2.23-.41,2.25,1.57,2.46,1.83-.2,1.33,2.75,1.57,3.36-1,.25-1.09,1.32-1.38,2.33-1.39,4,0,7.61,10,8.93,13.16h-9.57l1.94,17-13.18,0,2.65-17.55Z"/><polyline class="cls-24" points="62.02 76.14 84.06 93.53 99.94 80.48"/><line class="cls-25" x1="74.3" y1="88.34" x2="62.02" y2="98.27"/><line class="cls-25" x1="93.24" y1="88.34" x2="105.51" y2="98.27"/><path class="cls-1" d="M88,67.09c1.71-1,4.48-.9,3.32,1-.47.76-2.46.81-2.65,1,0,0,2.68-.24,1.49,2.22H85.54A5,5,0,0,1,88,67.09Z"/><path class="cls-25" d="M88,67.09c1.71-1,4.48-.9,3.32,1-.47.76-2.46.81-2.65,1,0,0,2.68-.24,1.49,2.22H85.54A5,5,0,0,1,88,67.09Z"/><path class="cls-25" d="M87.75,69.45a2.62,2.62,0,0,1,1.35-.39h0"/><path class="cls-1" d="M95.19,71.35h4.06c-.74-1.15-3.09-3.84-4.66-2.55C93.73,69.49,94.62,70.78,95.19,71.35Z"/><path class="cls-25" d="M95.19,71.35h4.06c-.74-1.15-3.09-3.84-4.66-2.55C93.73,69.49,94.62,70.78,95.19,71.35Z"/><path class="cls-25" d="M70,52c8.36,3,16.49,3.94,19.54-3.81,1.65-4.17-3-4.68-3.28-1.27-.19,2.59,2.46,4,4.41,4.41a23.13,23.13,0,0,0,6.44,0"/><path class="cls-1" d="M131.4,84.9c.32.65,1.47,4.32,2,6.38,1.23,4.45.18,8.3-2.49,10.75-3.08,2.82-9.72,3.22-15.89-2.84-3.43-3.37-8.69-10.15-9.26-10.51s-3.09-1.25-4-2.73c-.54-.84-.48-2.36-.65-2.46-2.23-1.48-.66-3.52-.9-3.74s-1.71-1.32-1-2.55,2-.18,3.23.62a7.52,7.52,0,0,0,3,1.1s0-1.84.08-2.84c0-.6,2.31-1.23,2.73.74a41.83,41.83,0,0,0,1.29,4.57c1.51,1.49,10.52,9.12,13.21,11.73l-1.06-8.22Z"/><path class="cls-26" d="M131.4,84.9c.32.65,1.47,4.32,2,6.38,1.23,4.45.18,8.3-2.49,10.75-3.08,2.82-9.72,3.22-15.89-2.84-3.43-3.37-8.69-10.15-9.26-10.51s-3.09-1.25-4-2.73c-.54-.84-.48-2.36-.65-2.46-2.23-1.48-.66-3.52-.9-3.74s-1.71-1.32-1-2.55,2-.18,3.23.62a7.52,7.52,0,0,0,3,1.1s0-1.84.08-2.84c0-.6,2.31-1.23,2.73.74a41.83,41.83,0,0,0,1.29,4.57c1.51,1.49,10.52,9.12,13.21,11.73l-1.06-8.22Z"/><line class="cls-27" x1="121.32" y1="82.15" x2="121.7" y2="84.98"/><line class="cls-2" x1="113.41" y1="82.08" x2="113.11" y2="84.39"/><path class="cls-25" d="M100.1,79.62a8.83,8.83,0,0,0,1.55,1.19,10.58,10.58,0,0,0,2.26,1"/><path class="cls-25" d="M100.9,83.33a6.57,6.57,0,0,0,3.43,1.15l.25,0"/><line class="cls-28" x1="123.77" y1="157.38" x2="113.92" y2="125.08"/></svg>