<?xml version="1.0" standalone="no"?><!DOCTYPE svg PUBLIC "-//W3C//DTD SVG 1.1//EN" "http://www.w3.org/Graphics/SVG/1.1/DTD/svg11.dtd"><svg t="1639290103470" class="icon" viewBox="0 0 1024 1024" version="1.1" xmlns="http://www.w3.org/2000/svg" p-id="3159" xmlns:xlink="http://www.w3.org/1999/xlink" width="128" height="128"><defs><style type="text/css"></style></defs><path d="M861.44 246.8864a68.266667 68.266667 0 0 1 93.422933 58.965333l0.136534 4.3008 0.477866 232.5504a68.266667 68.266667 0 0 1-89.361066 65.0752l-4.061867-1.467733-157.832533-62.583467a34.133333 34.133333 0 0 1 22.647466-64.341333l2.5088 0.887467 157.832534 62.5664-0.477867-232.533334-157.2864 62.737067a34.133333 34.133333 0 0 1-27.733333-62.327467l2.440533-1.092266 157.2864-62.737067z" fill="#444444" p-id="3160"></path><path d="M682.666667 119.466667H136.533333a68.266667 68.266667 0 0 0-68.266666 68.266666v477.866667a68.266667 68.266667 0 0 0 68.266666 68.266667h546.133334a68.266667 68.266667 0 0 0 68.266666-68.266667V187.733333a68.266667 68.266667 0 0 0-68.266666-68.266666zM136.533333 187.733333h546.133334v477.866667H136.533333V187.733333z" fill="#444444" p-id="3161"></path><path d="M242.5344 701.5424a34.133333 34.133333 0 0 1 62.1568 28.091733l-1.092267 2.423467-85.333333 170.666667a34.133333 34.133333 0 0 1-62.1568-28.091734l1.092267-2.423466 85.333333-170.666667zM530.875733 686.267733a34.133333 34.133333 0 0 1 44.509867 12.919467l1.28 2.3552 85.333333 170.666667a34.133333 34.133333 0 0 1-59.784533 32.8704l-1.28-2.3552-85.333333-170.666667a34.133333 34.133333 0 0 1 15.274666-45.789867z" fill="#444444" p-id="3162"></path><path d="M512 529.066667v34.133333a34.133333 34.133333 0 0 1-34.133333 34.133333H238.933333a34.133333 34.133333 0 0 1-34.133333-34.133333v-34.133333h307.2z" fill="#00B386" p-id="3163"></path></svg>