<?xml version="1.0" standalone="no"?><!DOCTYPE svg PUBLIC "-//W3C//DTD SVG 1.1//EN" "http://www.w3.org/Graphics/SVG/1.1/DTD/svg11.dtd"><svg t="1636084649058" class="icon" viewBox="0 0 1024 1024" version="1.1" xmlns="http://www.w3.org/2000/svg" p-id="5439" xmlns:xlink="http://www.w3.org/1999/xlink" width="128" height="128"><defs><style type="text/css"></style></defs><path d="M512 1024a512 512 0 1 1 512-512 512 512 0 0 1-512 512z m0-955.733333a443.733333 443.733333 0 1 0 443.733333 443.733333A443.733333 443.733333 0 0 0 512 68.266667z" p-id="5440"></path><path d="M238.933333 341.333333m34.133334 0l68.266666 0q34.133333 0 34.133334 34.133334l0 68.266666q0 34.133333-34.133334 34.133334l-68.266666 0q-34.133333 0-34.133334-34.133334l0-68.266666q0-34.133333 34.133334-34.133334Z" p-id="5441"></path><path d="M443.733333 341.333333m34.133334 0l68.266666 0q34.133333 0 34.133334 34.133334l0 68.266666q0 34.133333-34.133334 34.133334l-68.266666 0q-34.133333 0-34.133334-34.133334l0-68.266666q0-34.133333 34.133334-34.133334Z" p-id="5442"></path><path d="M238.933333 546.133333m34.133334 0l68.266666 0q34.133333 0 34.133334 34.133334l0 68.266666q0 34.133333-34.133334 34.133334l-68.266666 0q-34.133333 0-34.133334-34.133334l0-68.266666q0-34.133333 34.133334-34.133334Z" p-id="5443"></path><path d="M648.533333 375.466667v136.533333a34.133333 34.133333 0 0 1-34.133333 34.133333h-136.533333a34.133333 34.133333 0 0 0-34.133334 34.133334v68.266666a34.133333 34.133333 0 0 0 34.133334 34.133334h273.066666a34.133333 34.133333 0 0 0 34.133334-34.133334v-273.066666a34.133333 34.133333 0 0 0-34.133334-34.133334h-68.266666a34.133333 34.133333 0 0 0-34.133334 34.133334z" p-id="5444" data-spm-anchor-id="a313x.7781069.0.i8" class="selected" fill="#26bd99"></path></svg>