<?xml version="1.0" standalone="no"?><!DOCTYPE svg PUBLIC "-//W3C//DTD SVG 1.1//EN" "http://www.w3.org/Graphics/SVG/1.1/DTD/svg11.dtd"><svg t="1642756093130" class="icon" viewBox="0 0 1024 1024" version="1.1" xmlns="http://www.w3.org/2000/svg" p-id="2414" xmlns:xlink="http://www.w3.org/1999/xlink" width="128" height="128"><defs><style type="text/css"></style></defs><path d="M526.04941082 179.59383679c97.20454216 0 173.70865344 28.7962228 229.51160967 87.28812038 47.70209491 50.39320886 72.00323046 112.48436272 72.00323046 186.27490998 0 62.99060584-20.70115507 121.48322761-60.30311287 175.47569275-40.50213397 53.09301317-86.40387654 80.08888364-138.60685229 80.08888364-37.80160546 0-59.4029367-18.89718175-65.70344567-55.79209328-26.10148788 37.7950877-61.20328903 56.69226945-104.40522731 56.69226943-40.50213397 0-72.90340661-13.49829733-98.10471832-40.49416779-25.2020359-26.99659467-37.80232966-61.19170189-37.80232966-101.68659389 0-62.99060584 18.90152693-117.88397134 58.50276052-166.47682786 38.70250583-49.49375689 85.50442456-73.79054725 139.50775266-73.79054726 38.70105743 0 65.70272147 20.69753408 81.90371991 62.09187806l12.60101794-44.99432444h80.10336758l-61.20256484 219.57056523c-9.00031327 32.39547908-13.50046992 52.192837-13.50046992 60.29152571 0 11.69866919 6.30050899 17.99772978 19.8009789 17.99772978 25.2013117 0 50.40262343-17.0982778 75.60321091-49.4930327 28.80129218-37.7950877 43.20266247-84.58904028 43.20266248-138.58150541 0-55.79209328-19.8009789-103.48549784-59.40293669-142.1807617-44.10211444-43.19397211-103.50577533-63.89078199-179.10898627-63.890782-81.00426793 0-144.90736127 25.19624233-193.51035654 76.48962737-48.60227108 50.39320886-72.00323046 116.083619-72.00323046 196.17322683 0 88.18757236 25.2013117 155.67833482 76.50411129 200.67265928 46.80191874 41.39434397 114.30571676 62.09115386 201.60976947 62.09115386 58.50276053 0 108.00520778-9.89831687 149.40751791-27.89604664 37.80232966-17.99772978 67.50379801-42.29452013 90.90475737-74.68999922H858.16589546c-31.50182068 56.69226945-78.30373943 99.88696575-139.50702845 128.68246435C662.85591078 834.70482778 601.65262175 847.30294895 533.24937177 847.30294895c-115.20516873 0-205.21047413-29.69567478-269.11356748-89.08774852C200.23271096 698.82312667 168.73089027 617.83406687 168.73089027 517.04764914c0-93.58718097 30.60164452-171.87643647 92.70438552-234.8677665C328.03962182 213.78894401 416.24312651 179.59383679 526.04941082 179.59383679z m10.9469533 225.9492874c-34.25593972 0-64.00448084 17.1200037-89.24634755 51.35928691C422.50887406 491.1416943 409.8883028 528.98457897 409.8883028 571.33341384c0 21.62450553 4.50739861 37.84360886 13.52219582 48.65586161C432.42529583 631.70315277 445.94749165 638.01017952 465.779611 638.01017952c17.12796986 0 34.25593972-6.30775094 50.48228501-18.92180443 18.02959443-14.41657841 30.65016567-33.33838283 37.86243797-55.86451291l18.02887023-64.87351657C579.36547649 472.21988988 582.97125054 456.00006235 582.97125054 450.59393596c0-13.51495386-5.40902317-24.32793082-14.42382038-32.43675828C559.53263295 409.14744986 548.7153108 405.54312419 536.99636412 405.54312419z" fill="#ffffff" p-id="2415"></path></svg>