<?xml version="1.0" standalone="no"?><!DOCTYPE svg PUBLIC "-//W3C//DTD SVG 1.1//EN" "http://www.w3.org/Graphics/SVG/1.1/DTD/svg11.dtd"><svg class="icon" width="128px" height="128.00px" viewBox="0 0 1024 1024" version="1.1" xmlns="http://www.w3.org/2000/svg"><path d="M512 516.4544m-450.816 0a450.816 450.816 0 1 0 901.632 0 450.816 450.816 0 1 0-901.632 0Z" fill="#8486F8" /><path d="M541.44 432.896c0-18.9952-15.4624-34.4576-34.4576-34.4576-18.9952 0-34.4576 15.4624-34.4576 34.4576s15.4624 34.4576 34.4576 34.4576c18.9952-0.0512 34.4576-15.4624 34.4576-34.4576z" fill="#FFFFFF" /><path d="M794.5216 774.912l-71.7312-73.6256c49.8176-52.992 80.4352-124.3136 80.4352-202.8032 0-163.584-132.608-296.192-296.192-296.192-163.584 0-296.192 132.608-296.192 296.192s132.608 296.192 296.192 296.192c62.976 0 121.344-19.712 169.3696-53.248l74.2912 76.2368a30.62784 30.62784 0 0 0 21.9648 9.2672c7.68 0 15.4112-2.8672 21.3504-8.704 12.0832-11.776 12.3392-31.1808 0.512-43.3152z m-171.8784-130.7136c-16.896 0-30.6176-13.7216-30.6176-30.6176 0-46.8992-38.144-84.992-84.992-84.992-46.8992 0-84.992 38.144-84.992 84.992 0 16.896-13.7216 30.6176-30.6176 30.6176-16.896 0-30.6176-13.7216-30.6176-30.6176 0-52.3264 27.648-98.3552 69.12-124.16-11.6224-15.872-18.5344-35.3792-18.5344-56.5248 0-52.7872 42.9056-95.6928 95.6928-95.6928s95.6928 42.9056 95.6928 95.6928c0 21.1456-6.912 40.6528-18.5344 56.5248 41.472 25.856 69.12 71.8336 69.12 124.16-0.1024 16.9472-13.824 30.6176-30.72 30.6176z" fill="#FFFFFF" /></svg>