<?xml version="1.0" standalone="no"?>
<!DOCTYPE svg PUBLIC "-//W3C//DTD SVG 1.1//EN" "http://www.w3.org/Graphics/SVG/1.1/DTD/svg11.dtd">
<svg t="1634207780329" class="icon" viewBox="0 0 1024 1024" version="1.1" xmlns="http://www.w3.org/2000/svg" p-id="2115" xmlns:xlink="http://www.w3.org/1999/xlink" width="128" height="128">
    <defs>
        <style type="text/css"></style>
    </defs>
    <path d="M512.3 1008.6c-10 0-19.6-4.1-26.5-11.4l-413-435.6c-0.4-0.4-0.7-0.8-1.1-1.2C25.5 507.1 0 438.1 0 366.2c0-76.3 28-148 78.9-202 24.9-26.4 53.9-47.2 86.3-61.7 33.7-15.1 69.4-22.8 106.3-22.8 100.4 0 192.7 58.2 240.8 151.8C561.2 138 653.2 79.8 752.5 79.8c36.8 0 72.6 7.7 106.3 22.8 32.4 14.5 61.4 35.3 86.3 61.7 50.9 54 78.9 125.7 78.9 202 0 72.3-25.2 141.3-71.1 194.1-0.4 0.4-0.7 0.8-1.1 1.2L538.9 997.1c-6.9 7.3-16.5 11.5-26.6 11.5zM126.5 511.8l385.8 407 385.8-407c34-39.5 52.7-91.2 52.7-145.6 0-57.5-20.9-111.4-59-151.8C854.5 174.8 805 153 752.5 153c-71.9 0-139.1 43.1-175.3 112.5l-32.7 62.6c-6.3 12.1-18.8 19.7-32.4 19.7h-0.1c-13.7 0-26.2-7.7-32.4-19.9l-32.3-62.8C411.7 195.9 344.4 153 271.5 153c-52.5 0-102 21.8-139.4 61.5-38 40.4-59 94.3-59 151.8 0.1 53.9 19 105.6 53.4 145.5z" p-id="2116" fill="#8a8a8a"></path>
</svg>